<svg xmlns="http://www.w3.org/2000/svg" width="50" height="50.008" viewBox="0 0 50 50.008">
  <path id="Path_133" data-name="Path 133" d="M44.647,28.953V7.592A4.172,4.172,0,0,0,40.48,3.426H36.247V1.392a1.392,1.392,0,0,0-2.783,0V3.434H11.206V1.4a1.392,1.392,0,0,0-2.783,0V3.434H4.2A4.172,4.172,0,0,0,.032,7.6V40.407A4.172,4.172,0,0,0,4.2,44.573H28.943a11.383,11.383,0,1,0,15.7-15.621ZM2.807,7.592A1.39,1.39,0,0,1,4.2,6.2H8.431V8.465a1.392,1.392,0,1,0,2.783,0V6.2H33.489V8.465a1.392,1.392,0,1,0,2.783,0V6.2H40.5A1.39,1.39,0,0,1,41.9,7.592v5.04H2.807Zm24.9,34.214L4.207,41.8a1.39,1.39,0,0,1-1.392-1.392V15.423H41.88V27.7A11.376,11.376,0,0,0,27.708,41.807Zm10.927,5.427a8.622,8.622,0,1,1,8.622-8.622A8.635,8.635,0,0,1,38.635,47.233Z" transform="translate(-0.032 0)" fill="#fff"/>
</svg>
