<svg xmlns="http://www.w3.org/2000/svg" xmlns:xlink="http://www.w3.org/1999/xlink" width="278" height="298.5" viewBox="0 0 278 298.5">
  <defs>
    <filter id="Ellipse_38" x="0" y="0" width="70" height="70" filterUnits="userSpaceOnUse">
      <feOffset dy="3" input="SourceAlpha"/>
      <feGaussianBlur stdDeviation="3" result="blur"/>
      <feFlood flood-opacity="0.161"/>
      <feComposite operator="in" in2="blur"/>
      <feComposite in="SourceGraphic"/>
    </filter>
    <filter id="Path_268" x="16.5" y="38.5" width="260" height="260" filterUnits="userSpaceOnUse">
      <feOffset dy="6" input="SourceAlpha"/>
      <feGaussianBlur stdDeviation="3" result="blur-2"/>
      <feFlood flood-opacity="0.161"/>
      <feComposite operator="in" in2="blur-2"/>
      <feComposite in="SourceGraphic"/>
    </filter>
    <filter id="Ellipse_38-2" x="208" y="42" width="70" height="70" filterUnits="userSpaceOnUse">
      <feOffset dy="3" input="SourceAlpha"/>
      <feGaussianBlur stdDeviation="3" result="blur-3"/>
      <feFlood flood-opacity="0.161"/>
      <feComposite operator="in" in2="blur-3"/>
      <feComposite in="SourceGraphic"/>
    </filter>
  </defs>
  <g id="Group_224" data-name="Group 224" transform="translate(-621 -213)">
    <g id="Group_220" data-name="Group 220" transform="translate(484.5 -156.5)">
      <g transform="matrix(1, 0, 0, 1, 136.5, 369.5)" filter="url(#Path_268)">
        <g id="Path_268-2" data-name="Path 268" transform="translate(25.5 41.5)" fill="#fff">
          <path d="M 121 240.5 C 112.8910903930664 240.5 104.7877197265625 239.6831512451172 96.91500091552734 238.0721588134766 C 89.24309539794922 236.5022888183594 81.69678497314453 234.1597442626953 74.48568725585938 231.1097259521484 C 67.40512847900391 228.1148986816406 60.57584381103516 224.4080657958984 54.18746948242188 220.0921630859375 C 47.85940551757813 215.8170318603516 41.90874862670898 210.9072570800781 36.50075149536133 205.4992523193359 C 31.09275054931641 200.0912780761719 26.1830005645752 194.1405944824219 21.90784454345703 187.8125305175781 C 17.59193801879883 181.4241943359375 13.88509368896484 174.5948791503906 10.89028167724609 167.5143432617188 C 7.840250015258789 160.30322265625 5.497749805450439 152.7569122314453 3.927843809127808 145.0850067138672 C 2.316843748092651 137.2122802734375 1.5 129.1089019775391 1.5 121 C 1.5 112.8910903930664 2.316843748092651 104.7877502441406 3.927843809127808 96.91500091552734 C 5.497749805450439 89.24309539794922 7.840250015258789 81.69678497314453 10.89028167724609 74.48568725585938 C 13.88509368896484 67.40512847900391 17.59193801879883 60.57584381103516 21.90784454345703 54.18746948242188 C 26.1830005645752 47.85940551757813 31.09275054931641 41.90874862670898 36.50075149536133 36.50075149536133 C 41.90874862670898 31.09275054931641 47.85940551757813 26.1830005645752 54.18746948242188 21.90784454345703 C 60.57584381103516 17.59193801879883 67.40512847900391 13.88509368896484 74.48568725585938 10.89028167724609 C 81.69678497314453 7.840250015258789 89.24309539794922 5.497749805450439 96.91500091552734 3.927843809127808 C 104.7877502441406 2.316843748092651 112.8910903930664 1.5 121 1.5 C 129.1089019775391 1.5 137.2122802734375 2.316843748092651 145.0850067138672 3.927843809127808 C 152.7569122314453 5.497749805450439 160.30322265625 7.840250015258789 167.5143432617188 10.89028167724609 C 174.5948791503906 13.88509368896484 181.4241943359375 17.59193801879883 187.8125305175781 21.90784454345703 C 194.1405944824219 26.1830005645752 200.0912780761719 31.09275054931641 205.4992523193359 36.50075149536133 C 210.9072570800781 41.90874862670898 215.8170318603516 47.85940551757813 220.0921630859375 54.18746948242188 C 224.4080657958984 60.57584381103516 228.1148986816406 67.40512847900391 231.1097259521484 74.48568725585938 C 234.1597442626953 81.69678497314453 236.5022888183594 89.24309539794922 238.0721588134766 96.91500091552734 C 239.6831512451172 104.7877197265625 240.5 112.8910903930664 240.5 121 C 240.5 129.1089019775391 239.6831512451172 137.2122802734375 238.0721588134766 145.0850067138672 C 236.5022888183594 152.7569122314453 234.1597442626953 160.30322265625 231.1097259521484 167.5143432617188 C 228.1148986816406 174.5948791503906 224.4080657958984 181.4241943359375 220.0921630859375 187.8125305175781 C 215.8170318603516 194.1405944824219 210.9072570800781 200.0912780761719 205.4992523193359 205.4992523193359 C 200.0912780761719 210.9072570800781 194.1405944824219 215.8170318603516 187.8125305175781 220.0921630859375 C 181.4241943359375 224.4080657958984 174.5948791503906 228.1148986816406 167.5143432617188 231.1097259521484 C 160.30322265625 234.1597442626953 152.7569122314453 236.5022888183594 145.0850067138672 238.0721588134766 C 137.2122802734375 239.6831512451172 129.1089019775391 240.5 121 240.5 Z" stroke="none"/>
          <path d="M 121 3 C 112.9918975830078 3 104.9897003173828 3.806594848632813 97.2156982421875 5.39739990234375 C 89.64083862304688 6.947433471679688 82.18992614746094 9.260330200195313 75.07000732421875 12.27180480957031 C 68.07865905761719 15.22889709472656 61.33529663085938 18.88909912109375 55.02716064453125 23.15077209472656 C 48.77822875976563 27.37246704101563 42.90190124511719 32.22093200683594 37.5614013671875 37.5614013671875 C 32.22093200683594 42.90190124511719 27.37246704101563 48.77822875976563 23.15077209472656 55.02716064453125 C 18.88909912109375 61.33529663085938 15.22889709472656 68.07865905761719 12.27180480957031 75.07000732421875 C 9.260330200195313 82.18992614746094 6.947433471679688 89.64083862304688 5.39739990234375 97.2156982421875 C 3.806594848632813 104.9897003173828 3 112.9918975830078 3 121 C 3 129.0081024169922 3.806594848632813 137.0102996826172 5.39739990234375 144.7843017578125 C 6.947433471679688 152.3591918945313 9.260330200195313 159.81005859375 12.27180480957031 166.9299926757813 C 15.22889709472656 173.9213256835938 18.88909912109375 180.6647338867188 23.15077209472656 186.9728393554688 C 27.37246704101563 193.2218017578125 32.22093200683594 199.0981292724609 37.5614013671875 204.4385986328125 C 42.90190124511719 209.7790985107422 48.77822875976563 214.6275329589844 55.02716064453125 218.8492279052734 C 61.33529663085938 223.1109008789063 68.07865905761719 226.7711334228516 75.07000732421875 229.7281951904297 C 82.18992614746094 232.7397003173828 89.64083862304688 235.0525665283203 97.2156982421875 236.6026000976563 C 104.9897003173828 238.1934051513672 112.9918975830078 239 121 239 C 129.0081024169922 239 137.0102996826172 238.1934051513672 144.7843017578125 236.6026000976563 C 152.3591918945313 235.0525665283203 159.81005859375 232.7397003173828 166.9299926757813 229.7281951904297 C 173.9213256835938 226.7711334228516 180.6647338867188 223.1109008789063 186.9728393554688 218.8492279052734 C 193.2218017578125 214.6275329589844 199.0981292724609 209.7790985107422 204.4385986328125 204.4385986328125 C 209.7790985107422 199.0981292724609 214.6275329589844 193.2218017578125 218.8492279052734 186.9728393554688 C 223.1109008789063 180.6647338867188 226.7711334228516 173.9213256835938 229.7281951904297 166.9299926757813 C 232.7397003173828 159.81005859375 235.0525665283203 152.3591918945313 236.6026000976563 144.7843017578125 C 238.1934051513672 137.0102996826172 239 129.0081024169922 239 121 C 239 112.9918975830078 238.1934051513672 104.9897003173828 236.6026000976563 97.2156982421875 C 235.0525665283203 89.64083862304688 232.7397003173828 82.18992614746094 229.7281951904297 75.07000732421875 C 226.7711334228516 68.07865905761719 223.1109008789063 61.33529663085938 218.8492279052734 55.02716064453125 C 214.6275329589844 48.77822875976563 209.7790985107422 42.90190124511719 204.4385986328125 37.5614013671875 C 199.0981292724609 32.22093200683594 193.2218017578125 27.37246704101563 186.9728393554688 23.15077209472656 C 180.6647338867188 18.88909912109375 173.9213256835938 15.22889709472656 166.9299926757813 12.27180480957031 C 159.81005859375 9.260330200195313 152.3591918945313 6.947433471679688 144.7843017578125 5.39739990234375 C 137.0102996826172 3.806594848632813 129.0081024169922 3 121 3 M 121 0 C 187.8264617919922 0 242 54.17356872558594 242 121 C 242 187.8264617919922 187.8264617919922 242 121 242 C 54.17356872558594 242 0 187.8264617919922 0 121 C 0 54.17356872558594 54.17356872558594 0 121 0 Z" stroke="none" fill="#4B6E1A"/>
        </g>
      </g>
      <g id="Group_207" data-name="Group 207" transform="translate(237.479 443.5)">
        <circle id="Ellipse_69" data-name="Ellipse 69" cx="27.282" cy="27.282" r="27.282" transform="translate(0 28.308)" fill="#87bb40"/>
        <path id="Path_266" data-name="Path 266" d="M52.8,5.5,38.9,46.689a27.189,27.189,0,0,1-8.648,37.485h49.09Z" transform="translate(11.525 -5.5)" fill="#597A2A"/>
        <line id="Line_20" data-name="Line 20" x2="6.296" y2="6.296" transform="translate(20.986 66.083)" fill="none" stroke="#9a6b37" stroke-linecap="round" stroke-miterlimit="10" stroke-width="2"/>
        <line id="Line_21" data-name="Line 21" x1="6.296" y2="6.296" transform="translate(27.282 66.083)" fill="none" stroke="#9a6b37" stroke-linecap="round" stroke-miterlimit="10" stroke-width="2"/>
        <line id="Line_22" data-name="Line 22" y2="29.38" transform="translate(27.282 72.379)" fill="none" stroke="#9a6b37" stroke-linecap="round" stroke-miterlimit="10" stroke-width="2"/>
        <line id="Line_23" data-name="Line 23" x2="6.296" y2="6.296" transform="translate(58.761 66.083)" fill="none" stroke="#9a6b37" stroke-linecap="round" stroke-miterlimit="10" stroke-width="2"/>
        <line id="Line_24" data-name="Line 24" x1="6.296" y2="6.296" transform="translate(65.057 66.083)" fill="none" stroke="#9a6b37" stroke-linecap="round" stroke-miterlimit="10" stroke-width="2"/>
        <line id="Line_25" data-name="Line 25" y2="29.38" transform="translate(65.057 72.379)" fill="none" stroke="#9a6b37" stroke-linecap="round" stroke-miterlimit="10" stroke-width="2"/>
      </g>
    </g>
    <text id="Golani" transform="translate(766 425)" fill="#000700" font-size="24" font-family="Assistant, Gilroy, sans-serif" font-weight="800"><tspan x="-100" y="0">Golani Junction</tspan></text>
    <g id="Group_212" data-name="Group 212" transform="translate(2963 756.34)">
      <g transform="matrix(1, 0, 0, 1, -2342, -543.34)" filter="url(#Ellipse_38-2)">
        <circle id="Ellipse_38-4" data-name="Ellipse 38" cx="26" cy="26" r="26" transform="translate(217 48)" fill="#4B6E1A"/>
      </g>
      <g id="tick" transform="translate(-2113.342 -480.905)">
        <g id="Group_159" data-name="Group 159" transform="translate(0 0)">
          <path id="Path_240" data-name="Path 240" d="M8.677,64.086l-5.6-5.6L0,61.566l7.388,7.388.008-.009,1.349,1.349L29.6,49.436,26.465,46.3Z" transform="translate(0 -46.298)" fill="#fff"/>
        </g>
      </g>
    </g>
  </g>
</svg>
