<svg xmlns="http://www.w3.org/2000/svg" width="48.761" height="37.108" viewBox="0 0 48.761 37.108"><defs><style>.a{fill:#ff8000;}</style></defs><g transform="translate(0 -57.75)"><g transform="translate(0 57.75)"><path class="a" d="M42.809,57.75H5.963A5.968,5.968,0,0,0,0,63.713V88.9a5.968,5.968,0,0,0,5.963,5.963H42.8A5.968,5.968,0,0,0,48.761,88.9V63.723A5.961,5.961,0,0,0,42.809,57.75ZM46.047,88.9a3.242,3.242,0,0,1-3.239,3.239H5.963A3.242,3.242,0,0,1,2.724,88.9V63.723a3.242,3.242,0,0,1,3.239-3.239H42.8a3.242,3.242,0,0,1,3.239,3.239V88.9Z" transform="translate(0 -57.75)"/><path class="a" d="M80.879,121.983,92.8,111.288a1.364,1.364,0,1,0-1.826-2.028L74.533,124.021l-3.208-2.865c-.01-.01-.02-.02-.02-.03a2.017,2.017,0,0,0-.222-.192L58.027,109.25a1.365,1.365,0,1,0-1.816,2.038l12.067,10.785L56.262,133.323a1.368,1.368,0,0,0-.061,1.927,1.393,1.393,0,0,0,1,.434,1.365,1.365,0,0,0,.928-.363l12.2-11.411,3.309,2.956a1.358,1.358,0,0,0,1.816-.01l3.4-3.047,12.127,11.522a1.366,1.366,0,0,0,1.927-.05,1.368,1.368,0,0,0-.05-1.927Z" transform="translate(-50.127 -103.742)"/></g></g></svg>