<svg xmlns="http://www.w3.org/2000/svg" width="41.983" height="26.398" viewBox="0 0 41.983 26.398">
  <g id="solid" transform="translate(0)">
    <path id="Path_26" data-name="Path 26" d="M33.163,22.446a8.754,8.754,0,0,0-2.874.491l-2.863-6.583H31.47a1.015,1.015,0,0,1,0,2.031H29.778v1.354H31.47a2.369,2.369,0,0,0,0-4.738H26.394a.677.677,0,0,0-.621.948l1.354,3.114H15.809l-.658-2.067-1.291.412.583,1.828a.671.671,0,0,0-.155.187L12.3,23.177a8.8,8.8,0,1,0,4.985,10.347l.338.064a2.023,2.023,0,0,0,1.631,1.68L20,37.494a.677.677,0,0,0,.626.463l2.369.056.031-1.354-1.9-.045L20.6,35.042a2.016,2.016,0,0,0,.689-2.917l7.186-9.95.566,1.3a8.791,8.791,0,1,0,4.117-1.032ZM8.795,38.014a6.769,6.769,0,1,1,2.551-13.035L8.2,30.928a.677.677,0,0,0,.474.981l6.617,1.241A6.778,6.778,0,0,1,8.795,38.014Zm6.74-6.193L9.824,30.75l2.719-5.136a6.765,6.765,0,0,1,3.021,5.632C15.564,31.439,15.551,31.63,15.535,31.821Zm2.342.439-.338-.063a8.749,8.749,0,0,0-4.048-8.378L15,20.975,18.4,31.665a2.024,2.024,0,0,0-.525.6Zm2.315-.924a2,2,0,0,0-.5-.083L16.241,20.415H27.716l.135.313Zm12.971,6.679a6.765,6.765,0,0,1-3.3-12.671l2.683,6.172,1.241-.542L31.1,24.8a6.769,6.769,0,1,1,2.064,13.215Z" transform="translate(0.014 -13.646)" fill="#fff"/>
    <path id="Path_27" data-name="Path 27" d="M16.957,13a.957.957,0,0,0-.677,1.634l.386.386a2.348,2.348,0,0,0,2.4.567l3.162-1.054a.787.787,0,0,0,.542-.745h0a.787.787,0,0,0-.79-.789Z" transform="translate(-5.16 -13)" fill="#fff"/>
  </g>
</svg>
