<svg xmlns="http://www.w3.org/2000/svg" width="24" height="24.576" viewBox="0 0 24 24.576">
  <g id="star-of-david_3_" data-name="star-of-david(3)" transform="translate(0 0)">
    <path id="Path_147" data-name="Path 147" d="M26.54,12.288l3.391-5.657a.48.48,0,0,0-.412-.727H22.245L18.4.211a.48.48,0,0,0-.8,0L13.754,5.9H6.48a.48.48,0,0,0-.412.727l3.391,5.657L6.068,17.945a.48.48,0,0,0,.412.727h7.274L17.6,24.364a.48.48,0,0,0,.8,0l3.848-5.693h7.274a.48.48,0,0,0,.412-.727Zm-4.55,5.424a.48.48,0,0,0-.4.211L18,23.239l-3.593-5.316a.48.48,0,0,0-.4-.211H7.327l3.1-5.177a.48.48,0,0,0,0-.494l-3.1-5.177h6.682a.48.48,0,0,0,.4-.211L18,1.337l3.593,5.316a.48.48,0,0,0,.4.211h6.682l-3.1,5.177a.48.48,0,0,0,0,.494l3.1,5.177Z" transform="translate(-6)" fill="#fff"/>
    <path id="Path_148" data-name="Path 148" d="M101.745,216.266h-1.414l2.752-4.552a.48.48,0,0,0-.822-.5L99.07,216.5a.48.48,0,0,0,.411.728h2.265a.48.48,0,1,0,0-.96Z" transform="translate(-94.537 -200.858)" fill="#fff"/>
    <path id="Path_149" data-name="Path 149" d="M100.118,173.471a.48.48,0,0,0,.822-.5l-.612-1.016h6.3a.48.48,0,1,0,0-.96H99.48a.48.48,0,0,0-.411.728Z" transform="translate(-94.536 -162.792)" fill="#fff"/>
    <path id="Path_150" data-name="Path 150" d="M222.446,98.556a.48.48,0,0,0,.667-.127l.743-1.094,3.221,4.761a.48.48,0,0,0,.8-.538l-3.617-5.348a.48.48,0,0,0-.4-.211h0a.48.48,0,0,0-.4.21l-1.141,1.68A.48.48,0,0,0,222.446,98.556Z" transform="translate(-211.856 -91.391)" fill="#fff"/>
    <path id="Path_151" data-name="Path 151" d="M325.069,171.96h1.384l-2.881,4.644a.48.48,0,1,0,.816.506l3.336-5.377a.48.48,0,0,0-.408-.733h-2.246a.48.48,0,0,0,0,.96Z" transform="translate(-308.26 -162.792)" fill="#fff"/>
    <path id="Path_152" data-name="Path 152" d="M252.887,284.543a.48.48,0,1,0-.822.5l.622,1.033H246.48a.48.48,0,1,0,0,.96h7.056a.48.48,0,0,0,.411-.728Z" transform="translate(-234.48 -270.664)" fill="#fff"/>
    <path id="Path_153" data-name="Path 153" d="M173.286,283.57a.48.48,0,0,0-.667.127l-.742,1.093-3.365-5a.48.48,0,1,0-.8.536l3.761,5.588a.48.48,0,0,0,.4.212h0a.48.48,0,0,0,.4-.21l1.141-1.68A.48.48,0,0,0,173.286,283.57Z" transform="translate(-159.876 -266.159)" fill="#fff"/>
  </g>
</svg>
