<svg id="whatsapp-logo" xmlns="http://www.w3.org/2000/svg" width="44" height="44" viewBox="0 0 44 44">
  <path id="WhatsApp" d="M44,21.433A21.636,21.636,0,0,1,11.959,40.2L0,44,3.9,32.5A21.208,21.208,0,0,1,.8,21.433a21.6,21.6,0,0,1,43.2,0ZM22.4,3.413A18.111,18.111,0,0,0,4.24,21.433,17.831,17.831,0,0,0,7.7,32L5.43,38.691l6.979-2.218A18.178,18.178,0,0,0,40.561,21.434,18.112,18.112,0,0,0,22.4,3.413ZM33.308,26.37c-.133-.219-.486-.351-1.015-.613s-3.134-1.534-3.618-1.709-.839-.263-1.192.263-1.367,1.709-1.677,2.059-.617.4-1.147.132A14.492,14.492,0,0,1,20.4,23.895a15.839,15.839,0,0,1-2.946-3.638c-.308-.526-.032-.81.232-1.071.239-.236.53-.614.794-.92a3.521,3.521,0,0,0,.529-.877.957.957,0,0,0-.044-.921c-.132-.263-1.192-2.848-1.633-3.9s-.881-.876-1.191-.876-.662-.044-1.015-.044a1.954,1.954,0,0,0-1.412.657,5.875,5.875,0,0,0-1.852,4.382,10.165,10.165,0,0,0,2.162,5.433c.264.35,3.662,5.828,9.044,7.931s5.383,1.4,6.354,1.313,3.132-1.271,3.575-2.5A4.38,4.38,0,0,0,33.308,26.37Z" fill="#4AC959"/>
</svg>
