<svg xmlns="http://www.w3.org/2000/svg" width="68" height="68" viewBox="0 0 68 68">
  <g id="Path_248" data-name="Path 248" fill="#87bb40">
    <path d="M 34 66.5 C 29.61186981201172 66.5 25.35578918457031 65.64090728759766 21.34999084472656 63.94660186767578 C 17.48010063171387 62.30978012084961 14.00426006317139 59.96620178222656 11.01902961730957 56.9809684753418 C 8.03380012512207 53.9957389831543 5.690219879150391 50.51990127563477 4.053400039672852 46.65000915527344 C 2.359090089797974 42.64421081542969 1.5 38.38813018798828 1.5 34 C 1.5 29.61186981201172 2.359090089797974 25.35578918457031 4.053400039672852 21.34999084472656 C 5.690219879150391 17.48010063171387 8.03380012512207 14.00426006317139 11.01902961730957 11.01902961730957 C 14.00426006317139 8.03380012512207 17.48010063171387 5.690219879150391 21.34999084472656 4.053400039672852 C 25.35578918457031 2.359090089797974 29.61186981201172 1.5 34 1.5 C 38.38813018798828 1.5 42.64421081542969 2.359090089797974 46.65000915527344 4.053400039672852 C 50.51990127563477 5.690219879150391 53.9957389831543 8.03380012512207 56.9809684753418 11.01902961730957 C 59.96620178222656 14.00426006317139 62.30978012084961 17.48010063171387 63.94660186767578 21.34999084472656 C 65.64090728759766 25.35578918457031 66.5 29.61186981201172 66.5 34 C 66.5 38.38813018798828 65.64090728759766 42.64421081542969 63.94660186767578 46.65000915527344 C 62.30978012084961 50.51990127563477 59.96620178222656 53.9957389831543 56.9809684753418 56.9809684753418 C 53.9957389831543 59.96620178222656 50.51990127563477 62.30978012084961 46.65000915527344 63.94660186767578 C 42.64421081542969 65.64090728759766 38.38813018798828 66.5 34 66.5 Z" stroke="none"/>
    <path d="M 34 3 C 29.8137092590332 3 25.75422286987305 3.819221496582031 21.93432235717773 5.434898376464844 C 18.24322128295898 6.996112823486328 14.92764282226563 9.231735229492188 12.07968902587891 12.07968902587891 C 9.231735229492188 14.92764282226563 6.996112823486328 18.24322128295898 5.434898376464844 21.93432235717773 C 3.819221496582031 25.75422286987305 3 29.8137092590332 3 34 C 3 38.18628692626953 3.819221496582031 42.24577713012695 5.434898376464844 46.06567764282227 C 6.996112823486328 49.75677871704102 9.231735229492188 53.07235717773438 12.07968902587891 55.92031097412109 C 14.92764282226563 58.76826477050781 18.24322128295898 61.00389099121094 21.93432235717773 62.56510162353516 C 25.75422286987305 64.18077850341797 29.8137092590332 65 34 65 C 38.18628692626953 65 42.24577713012695 64.18077850341797 46.06567764282227 62.56510162353516 C 49.75677871704102 61.00389099121094 53.07235717773438 58.76826477050781 55.92031097412109 55.92031097412109 C 58.76826477050781 53.07235717773438 61.00389099121094 49.75677871704102 62.56510162353516 46.06567764282227 C 64.18077850341797 42.24577713012695 65 38.18628692626953 65 34 C 65 29.8137092590332 64.18077850341797 25.75422286987305 62.56510162353516 21.93432235717773 C 61.00389099121094 18.24322128295898 58.76826477050781 14.92764282226563 55.92031097412109 12.07968902587891 C 53.07235717773438 9.231735229492188 49.75677871704102 6.996112823486328 46.06567764282227 5.434898376464844 C 42.24577713012695 3.819221496582031 38.18628692626953 3 34 3 M 34 0 C 52.77767944335938 0 68 15.22232055664063 68 34 C 68 52.77767944335938 52.77767944335938 68 34 68 C 15.22232055664063 68 0 52.77767944335938 0 34 C 0 15.22232055664063 15.22232055664063 0 34 0 Z" stroke="none" fill="#87bb40"/>
  </g>
</svg>
