<svg id="cutlery" xmlns="http://www.w3.org/2000/svg" width="21.715" height="20.562" viewBox="0 0 21.715 20.562">
  <g id="Group_128" data-name="Group 128" transform="translate(14.587 1.136)">
    <g id="Group_127" data-name="Group 127" transform="translate(0 0)">
      <path id="Path_143" data-name="Path 143" d="M348.659,40.478a.39.39,0,0,0-.551,0l-4.043,4.043a.39.39,0,0,0,.551.551l4.043-4.043A.39.39,0,0,0,348.659,40.478Z" transform="translate(-343.95 -40.364)" fill="#fff"/>
    </g>
  </g>
  <g id="Group_130" data-name="Group 130" transform="translate(15.687 2.218)">
    <g id="Group_129" data-name="Group 129" transform="translate(0 0)">
      <path id="Path_144" data-name="Path 144" d="M374.585,65.993a.39.39,0,0,0-.552,0l-4.043,4.043a.39.39,0,0,0,.551.551l4.043-4.043A.39.39,0,0,0,374.585,65.993Z" transform="translate(-369.876 -65.879)" fill="#fff"/>
    </g>
  </g>
  <g id="Group_132" data-name="Group 132" transform="translate(1.152 3.475)">
    <g id="Group_131" data-name="Group 131">
      <path id="Path_145" data-name="Path 145" d="M42.582,101.2,47.6,96.181a.39.39,0,1,0-.551-.551l-5.019,5.019a2.071,2.071,0,0,1-2.353.4.39.39,0,0,0-.46.093l-1.705,1.921,0,0,0,0-7.371,8.3-.006.006c-.024.029-.047.054-.07.077a1.248,1.248,0,1,1-1.765-1.765c.023-.023.048-.046.076-.07l.006-.006,4.608-4.09a.39.39,0,1,0-.518-.583l-4.6,4.087c-.044.038-.083.074-.12.111a2.028,2.028,0,0,0,2.868,2.868c.037-.037.074-.077.111-.12l5.617-6.328,5.617,6.328c.037.044.073.083.111.12a2.028,2.028,0,0,0,2.868-2.868c-.037-.037-.077-.074-.12-.111l-6.463-5.737,1.264-1.425A2.853,2.853,0,0,0,42.582,101.2Zm1.72,8.417.006.006c.029.024.054.047.077.07a1.248,1.248,0,1,1-1.765,1.765c-.023-.023-.046-.048-.07-.077l-.006-.006-5.681-6.4.973-1.1Z" transform="translate(-27.152 -95.515)" fill="#fff"/>
    </g>
  </g>
  <g id="Group_134" data-name="Group 134" transform="translate(0 0)">
    <g id="Group_133" data-name="Group 133">
      <path id="Path_146" data-name="Path 146" d="M18.126,13.7a.39.39,0,0,0-.551,0l-5.019,5.019a2.852,2.852,0,0,0-.67,2.964l-1.544,1.371L8.856,21.737a3.922,3.922,0,0,0-.73-4.562,8.878,8.878,0,0,0-3.945-2.4,3.408,3.408,0,0,0-3.363.659A3.407,3.407,0,0,0,.159,18.8a8.877,8.877,0,0,0,2.4,3.945,3.922,3.922,0,0,0,4.562.73l1.47,1.656a.39.39,0,0,0,.55.033l3.472-3.082a.39.39,0,0,0,.093-.46,2.07,2.07,0,0,1,.4-2.352l5.019-5.019A.39.39,0,0,0,18.126,13.7ZM8.912,24.323l-1.419-1.6a.39.39,0,0,0-.5-.073,3.146,3.146,0,0,1-3.889-.456A8.1,8.1,0,0,1,.915,18.61a2.672,2.672,0,0,1,.455-2.621,2.671,2.671,0,0,1,2.621-.454,8.1,8.1,0,0,1,3.584,2.192,3.146,3.146,0,0,1,.456,3.889.39.39,0,0,0,.073.5l1.649,1.464Z" transform="translate(0 -13.586)" fill="#fff"/>
    </g>
  </g>
</svg>
