<svg xmlns="http://www.w3.org/2000/svg" width="21.872" height="40.455" viewBox="0 0 21.872 40.455">
  <path id="Path_175" data-name="Path 175" d="M43.125.008,37.879,0c-5.894,0-9.7,3.908-9.7,9.956v4.59H22.9a.825.825,0,0,0-.825.825v6.651a.825.825,0,0,0,.825.825h5.275V39.63a.825.825,0,0,0,.825.825h6.882a.825.825,0,0,0,.825-.825V22.847h6.167a.825.825,0,0,0,.825-.825l0-6.651a.826.826,0,0,0-.825-.825H36.708V10.655c0-1.87.446-2.82,2.882-2.82h3.534a.825.825,0,0,0,.824-.825V.833A.825.825,0,0,0,43.125.008Z" transform="translate(-22.077)" fill="#fff"/>
</svg>
