<svg xmlns="http://www.w3.org/2000/svg" width="43" height="43" viewBox="0 0 43 43"><defs><style>.a{fill:#005cb8;}</style></defs><path class="a" d="M21.5,0A21.5,21.5,0,1,0,43,21.5,21.5,21.5,0,0,0,21.5,0Zm0,39.641A18.141,18.141,0,1,1,39.641,21.5,18.14,18.14,0,0,1,21.5,39.641Z"/><path class="a" d="M205.819,135.725h-3.873V132.9c0-.867.9-1.068,1.316-1.068h2.5v-3.815L202.9,128c-3.913,0-4.806,2.845-4.806,4.669v3.057H195.25v3.931h2.839v10.612h3.856V139.656h3.275Z" transform="translate(-179.034 -117.634)"/></svg>