<svg xmlns="http://www.w3.org/2000/svg" width="57" height="47.076" viewBox="0 0 57 47.076">
  <path id="forest" d="M57,65.719A13.228,13.228,0,0,0,36.5,54.662a41.263,41.263,0,0,0-2.193-6.9C31.907,42.113,28.759,39,25.446,39s-6.465,3.1-8.865,8.73a40.6,40.6,0,0,0-2.1,6.49L11.161,42.04a1.018,1.018,0,0,0-1.964,0L.036,75.63a1.018,1.018,0,0,0,.982,1.286H9.161v8.143a1.018,1.018,0,1,0,2.036,0V76.915h8.143A1.015,1.015,0,0,0,20.351,75.8a12.135,12.135,0,0,0,4.078,1.071v8.186a1.018,1.018,0,1,0,2.036,0V76.873a12.179,12.179,0,0,0,6.949-2.916A13.229,13.229,0,0,0,42.75,78.91v6.148a1.018,1.018,0,1,0,2.036,0V78.912A13.25,13.25,0,0,0,57,65.719ZM18.007,74.879H11.2V73.265l1.8-1.8a1.018,1.018,0,0,0-1.44-1.439l-.362.362v-6.7a1.018,1.018,0,1,0-2.036,0v4.668L7.845,67.035a1.018,1.018,0,0,0-1.44,1.44L9.161,71.23v1.613h0v2.035H2.351l7.828-28.7,3.449,12.645a43.9,43.9,0,0,0-.411,5.864,12.214,12.214,0,0,0,4.619,9.566Zm8.458-1.614,3.773-3.773a1.018,1.018,0,0,0-1.44-1.44l-2.334,2.334V66.14l2.755-2.755a1.018,1.018,0,1,0-1.44-1.44l-1.316,1.316V60.629a1.018,1.018,0,0,0-2.036,0v5.089h0v2.631l-2.334-2.334a1.018,1.018,0,0,0-1.44,1.44l3.773,3.773v1.613h0v1.984a10.209,10.209,0,0,1-9.177-10.143,43.346,43.346,0,0,1,3.2-16.156c2.03-4.762,4.579-7.493,6.992-7.493s4.957,2.744,6.992,7.527a43.347,43.347,0,0,1,3.2,16.122,10.209,10.209,0,0,1-9.177,10.143Zm18.321,3.6V75.3l3.773-3.773a1.018,1.018,0,0,0-1.44-1.44l-2.334,2.334v-6.7a1.018,1.018,0,0,0-2.036,0v4.668l-2.334-2.334a1.018,1.018,0,0,0-1.44,1.439l3.773,3.773v1.613h0v1.989a11.2,11.2,0,0,1-7.9-4.377,12.174,12.174,0,0,0,2.823-7.807,44.858,44.858,0,0,0-.728-7.845,11.2,11.2,0,1,1,7.837,20.028Z" transform="translate(0 -39)" fill="#fff"/>
</svg>
