<svg id="hand" xmlns="http://www.w3.org/2000/svg" width="50" height="50.016" viewBox="0 0 50 50.016">
  <path id="Path_137" data-name="Path 137" d="M220.734,332.2a1.178,1.178,0,1,0-1.666,0A1.179,1.179,0,0,0,220.734,332.2Zm0,0" transform="translate(-197.585 -298.207)" fill="#fff"/>
  <path id="Path_138" data-name="Path 138" d="M188.449,12.949A12.949,12.949,0,1,0,201.4,0,12.964,12.964,0,0,0,188.449,12.949Zm23.544,0A10.595,10.595,0,1,1,201.4,2.355,10.607,10.607,0,0,1,211.993,12.949Zm0,0" transform="translate(-172.93)" fill="#fff"/>
  <path id="Path_139" data-name="Path 139" d="M11.75,247.259a.863.863,0,0,0,1.378.01l4.735-5.623a4.1,4.1,0,0,0,.7-3.653l1.018-1.184a2.676,2.676,0,0,1,2.033-.99H34.593a8.041,8.041,0,0,0,6.131-3c.068-.08-.516.749,8.857-12.754a5.409,5.409,0,0,0-.464-6.637,3.471,3.471,0,0,0-5.48.525l-5.763,7.14a3.717,3.717,0,0,0-3.036-1.752H23.947a10.769,10.769,0,0,0-4.89-1.177c-4.7,0-8.809,2.618-11.013,7.527a2.614,2.614,0,0,0-2.612.976L.786,232.28a1.355,1.355,0,0,0,0,1.661Zm7.306-26.744a9.134,9.134,0,0,1,4.3,1.079.836.836,0,0,0,.392.1h11.09a2.4,2.4,0,0,1,0,4.709H26.869a1.2,1.2,0,0,0,0,2.354h7.968c2.154,0,3.906-2.112,3.906-4.709a5.684,5.684,0,0,0-.034-.615c5.575-6.907,6.361-7.878,6.394-7.926a1.739,1.739,0,0,1,2.754-.281,2.707,2.707,0,0,1,.229,3.323l-8.759,12.622a6.244,6.244,0,0,1-4.734,2.295H21.61a4.461,4.461,0,0,0-3.39,1.65l-.83.965-7.651-9.222a9.915,9.915,0,0,1,9.317-6.343ZM6.814,228.327a.854.854,0,0,1,1.209-.166c.169.124-.316-.408,8.459,10.154a1.358,1.358,0,0,1,.005,1.659l-4.036,4.793-9.6-11.655Zm0,0" transform="translate(-0.501 -197.591)" fill="#fff"/>
  <path id="Path_140" data-name="Path 140" d="M268.217,41.166v1.379a3.531,3.531,0,0,0,1.177,6.861,1.177,1.177,0,1,1,0,2.354,2.129,2.129,0,0,1-1.529-.891,1.177,1.177,0,1,0-1.8,1.515,4.882,4.882,0,0,0,2.154,1.533v1.374a1.177,1.177,0,0,0,2.354,0V53.912a3.531,3.531,0,0,0-1.177-6.861,1.177,1.177,0,0,1,0-2.355,1.89,1.89,0,0,1,1.273.615,1.177,1.177,0,0,0,1.637-1.692,4.548,4.548,0,0,0-1.734-1.084V41.166a1.177,1.177,0,1,0-2.354,0Zm0,0" transform="translate(-240.587 -35.28)" fill="#fff"/>
</svg>
