<svg xmlns="http://www.w3.org/2000/svg" xmlns:xlink="http://www.w3.org/1999/xlink" width="17.246" height="17.246" viewBox="0 0 17.246 17.246"><defs><style>.a{fill:url(#a);}</style><linearGradient id="a" x1="0.5" y1="0.008" x2="0.5" y2="0.998" gradientUnits="objectBoundingBox"><stop offset="0" stop-color="#fff"/><stop offset="1" stop-color="#fff"/></linearGradient></defs><path class="a" d="M12.108,0H5.138A5.143,5.143,0,0,0,0,5.138v6.971a5.143,5.143,0,0,0,5.138,5.138h6.971a5.143,5.143,0,0,0,5.138-5.138V5.138A5.143,5.143,0,0,0,12.108,0Zm3.4,12.108a3.4,3.4,0,0,1-3.4,3.4H5.138a3.4,3.4,0,0,1-3.4-3.4V5.138a3.4,3.4,0,0,1,3.4-3.4h6.971a3.4,3.4,0,0,1,3.4,3.4v6.971Z"/><path class="a" d="M137.46,133a4.46,4.46,0,1,0,4.46,4.46A4.465,4.465,0,0,0,137.46,133Zm0,7.186a2.725,2.725,0,1,1,2.725-2.725A2.725,2.725,0,0,1,137.46,140.186Z" transform="translate(-128.837 -128.837)"/><circle class="a" cx="1.069" cy="1.069" r="1.069" transform="translate(12.023 3.127)"/></svg>