<svg id="instagram-logo" xmlns="http://www.w3.org/2000/svg" width="19.464" height="19.464" viewBox="0 0 19.464 19.464">
  <path id="Path_157" data-name="Path 157" d="M14.092,0H5.371A5.377,5.377,0,0,0,0,5.371v8.721a5.377,5.377,0,0,0,5.371,5.371h8.721a5.377,5.377,0,0,0,5.371-5.371V5.371A5.377,5.377,0,0,0,14.092,0Zm3.645,14.092a3.649,3.649,0,0,1-3.644,3.644H5.371a3.648,3.648,0,0,1-3.644-3.644V5.371A3.648,3.648,0,0,1,5.371,1.727h8.721a3.649,3.649,0,0,1,3.644,3.644v8.721Z" fill="#fff"/>
  <path id="Path_158" data-name="Path 158" d="M45.983,40.97A5.015,5.015,0,1,0,51,45.985,5.021,5.021,0,0,0,45.983,40.97Zm0,8.3a3.288,3.288,0,1,1,3.288-3.288A3.292,3.292,0,0,1,45.983,49.273Z" transform="translate(-36.251 -36.253)" fill="#fff"/>
  <path id="Path_159" data-name="Path 159" d="M120.187,28.251a1.266,1.266,0,1,0,.9.371A1.271,1.271,0,0,0,120.187,28.251Z" transform="translate(-105.23 -24.999)" fill="#fff"/>
</svg>
