<svg id="Layer_1" data-name="Layer 1" xmlns="http://www.w3.org/2000/svg" viewBox="0 0 595.27559 841.88976"><defs><style>.cls-1{fill:#87bb40;}.cls-2{fill:#0376a2;stroke:#fff;stroke-width:2px;}.cls-2,.cls-4{stroke-miterlimit:10;}.cls-3{fill:#231f20;}.cls-4{fill:none;stroke:#231f20;}</style></defs><title>מפת ארץ ישראל</title><path class="cls-1" d="M257.84112,743.17816c-7.91209-18.1978-36-83.47252-36.3956-91.78022s.3956-18.5934-7.91209-23.73626-16.21978-62.10989-28.08791-73.978-13.45055-36.79121-13.84616-45.0989-28.48352-70.022-26.9011-80.7033c0,0,69.23077-46.28572,103.64835-163.78022s29.67033-110.76923,27.69231-117.0989-7.12088-20.967,7.12088-20.57143,20.57143,2.76923,19.78022-8.30769-5.93407-11.07693-1.18681-18.59341,3.956-23.34066,12.26373-22.945,17.4066.3956,21.36264-.39561,37.37866,7.34931,50.24176-10.28571c2.40021-3.29064-1.978-18.59341,2.76923-24.52748s27.69231-13.45054,34.022-13.45054,17.40659-1.58242,14.24176,5.93406,8.30769,37.978,9.0989,41.93407,4.74725,4.35165.79121,11.86813c-1.58242,2.37363,5.14285,7.12088,3.956,14.24176a85.14015,85.14015,0,0,1-5.14286,18.5934c-2.37362,5.93407,1.18682,15.42858-13.84615,26.5055s-17.8022,13.45055-22.54945,15.42857-12.26374,2.76923-11.47253,17.8022.39561,21.75824-4.35165,33.62637,3.16484,68.044-2.76923,75.16484,4.74725,11.07692,4.35165,25.31868,0,33.23077,0,33.23077l-26.9011,79.51648-7.51648,22.94506,1.978,25.31868-.3956,41.14285s1.18681,14.24176-10.68132,27.29671c-3.16484,3.56044-5.53846,5.53846-5.93407,13.05494s-17.011,111.16484-22.94505,123.033-25.71429,69.62637-26.10989,83.47253-8.3077,20.57143-11.86814,30.85714-6.32967,22.54945-13.84615,19.38461-14.24176-17.80219-10.68132-23.73626,4.35165-10.28571,2.37363-15.82417,2.76923-10.68132,0-19.78022S257.84112,743.17816,257.84112,743.17816Z"/><path class="cls-2" d="M387.40156,394.65069c.1978,9.89011,1.38461,23.53846.3956,31.25275s-1.58241,12.85714-7.31868,16.81318c-.79121.79121,0-3.75824.1978-7.91208s-1.978-6.13187-5.34065-4.74726-8.5055,9.89011-9.69231,13.055-4.54945,15.23077-.79121,17.60439,4.54945-2.967,8.30769.19781a51.96362,51.96362,0,0,1,8.5055,8.9011c3.16483,3.956.5934,6.32967-1.38462,9.0989s-.989,5.53846.79121,7.51648.79121,4.94505-6.72528,3.956-7.31868,9.69231-7.12088,14.43956,2.57143,16.41759-9.0989,17.6044-7.71428-12.26374-4.15384-15.42857,10.48351-10.68132,6.52747-18.79121-9.2967-15.23077-7.71429-21.16484,3.36264-1.78022,4.54946-16.61538,2.37362-16.41758,1.78021-20.76923-1.78021-5.53846-4.54945-5.34066-1.38461-4.74725,1.978-6.92308,6.92307-9.2967,3.75824-13.64835.5934-9.2967,1.978-10.87912-.3956-7.31868.59341-12.26374,1.38461-6.92307,4.54945-9.4945,3.956-5.34066,3.956-9.49451,4.94506-14.24176,11.27473-14.04395,14.24175.3956,13.84615,4.74725-5.14286,11.27472-4.15385,14.24176,1.58242,10.48351-1.78022,16.21978A24.49667,24.49667,0,0,0,387.40156,394.65069Z"/><path class="cls-2" d="M410.57738,132.79355c.25979,8.313.39561,21.16483-6.92307,25.91209s-5.93407-2.57143-5.53847-5.34066-2.17582-10.48352-7.51648-13.45055,2.37363-7.91209,6.72528-10.28572S410.37958,126.46388,410.57738,132.79355Z"/><path class="cls-3" d="M346.76595,107.00293h2.27441v12.06934h-2.27441Zm1.01269,9.87793h7.07227v2.19141h-7.07227Z"/><path class="cls-3" d="M356.61458,118.53711a2.66861,2.66861,0,0,1-.68457-2.00488,2.35054,2.35054,0,0,1,.76758-1.917,3.53292,3.53292,0,0,1,2.30371-.63964h2.1582l.11621,1.73535h-2.2666a1.22922,1.22922,0,0,0-.77148.20312.73952.73952,0,0,0-.25782.61817.68916.68916,0,0,0,.32422.627,1.87159,1.87159,0,0,0,.9795.20312,3.361,3.361,0,0,0,1.35742-.208.6797.6797,0,0,0,.44433-.64649l.17383,1.25293a1.173,1.173,0,0,1-.42773.78809,2.46744,2.46744,0,0,1-.94629.48633,4.37516,4.37516,0,0,1-1.19922.16211A2.88589,2.88589,0,0,1,356.61458,118.53711Zm4.4707-4.92676a1.11929,1.11929,0,0,0-.39843-.92139,1.74854,1.74854,0,0,0-1.12891-.32373,3.00746,3.00746,0,0,0-.95508.15772,2.80663,2.80663,0,0,0-.83789.43994l-1.41211-1.38623a3.39849,3.39849,0,0,1,1.36133-.91748,5.16644,5.16644,0,0,1,1.877-.32764,4.47488,4.47488,0,0,1,1.92578.37744,2.71235,2.71235,0,0,1,1.21582,1.09571,3.37908,3.37908,0,0,1,.41895,1.731v5.53663h-2.06641Z"/><path class="cls-3" d="M370.05013,110.45605h2.26562l-3.2373,8.61622H367.4681l-3.23731-8.61622h2.2666l1.77539,5.40333Z"/><path class="cls-3" d="M373.51888,107.00293h2.27539v2.27441h-2.27539Zm0,3.45312h2.27539v8.61622h-2.27539Z"/><path class="cls-3" d="M380.98177,107.00293h2.27441v12.06934h-2.27441Zm.83008,0h7.09765v2.19141h-7.09765Zm0,5.08838h6.18359v2.19189h-6.18359Z"/><path class="cls-3" d="M391.77669,118.75684a2.94637,2.94637,0,0,1-1.27051-1.28223,4.37594,4.37594,0,0,1-.43555-2.0293V114.042a4.28864,4.28864,0,0,1,.43555-2.00488,2.933,2.933,0,0,1,1.27051-1.26953,4.86317,4.86317,0,0,1,4.02539,0,2.933,2.933,0,0,1,1.27051,1.26953,4.28864,4.28864,0,0,1,.43554,2.00488v1.42774a4.30235,4.30235,0,0,1-.43554,2.01269,2.95434,2.95434,0,0,1-1.27051,1.27442,4.81906,4.81906,0,0,1-4.02539,0Zm3.07519-2.1543a1.57924,1.57924,0,0,0,.38184-1.13281V114.042a1.55276,1.55276,0,0,0-.38184-1.1206,1.41366,1.41366,0,0,0-1.07128-.39844,1.38772,1.38772,0,0,0-1.05762.39844,1.56406,1.56406,0,0,0-.37793,1.1206v1.42774a1.60685,1.60685,0,0,0,.373,1.13281,1.37944,1.37944,0,0,0,1.0625.40332A1.40544,1.40544,0,0,0,394.85188,116.60254Z"/><path class="cls-3" d="M399.58333,110.45605h2.44043v8.61622h-2.44043Zm4.44141,2.14991a1.71579,1.71579,0,0,0-.55664-.083,1.3241,1.3241,0,0,0-1.06641.44385,1.844,1.844,0,0,0-.37793,1.23242l-.17481-2.24072a3.08378,3.08378,0,0,1,.92579-1.19971,2.03537,2.03537,0,0,1,1.25-.42725,2.651,2.651,0,0,1,.97461.17041,2.12669,2.12669,0,0,1,.75976.502L404.431,112.855A1.04327,1.04327,0,0,0,404.02474,112.606Z"/><path class="cls-3" d="M408.23763,118.74414a3.09371,3.09371,0,0,1-1.34864-1.31934,4.36922,4.36922,0,0,1-.46484-2.08789v-.97168a4.916,4.916,0,0,1,.44434-2.18261,3.09267,3.09267,0,0,1,1.29492-1.37793,4.16889,4.16889,0,0,1,2.05469-.47315,3.28275,3.28275,0,0,1,1.93359.56446,3.475,3.475,0,0,1,1.22461,1.63916,7.1551,7.1551,0,0,1,.41894,2.59375v.56445h-5.89355V114.1582h3.81836l-.02539-.19922a2.00366,2.00366,0,0,0-.46875-1.1538,1.31048,1.31048,0,0,0-1.00781-.40674,1.647,1.647,0,0,0-1.27442.48974,1.96755,1.96755,0,0,0-.45215,1.38623v1.09571a1.81432,1.81432,0,0,0,.49317,1.36133,1.89505,1.89505,0,0,0,1.38183.48144,2.63683,2.63683,0,0,0,.90528-.16211,2.73562,2.73562,0,0,0,.81347-.46094l1.48633,1.32032a4.96457,4.96457,0,0,1-1.51172.95019,4.50514,4.50514,0,0,1-1.69336.33692A4.62425,4.62425,0,0,1,408.23763,118.74414Z"/><path class="cls-3" d="M417.57942,119.05957a6.81887,6.81887,0,0,1-1.36914-.40234,4.96979,4.96979,0,0,1-1.1289-.63965l1.40234-1.751a5.48292,5.48292,0,0,0,1.30273.61426,4.29919,4.29919,0,0,0,1.29493.21582,3.3982,3.3982,0,0,0,1.2373-.17871c.293-.11914.44043-.2832.44043-.49414a.52532.52532,0,0,0-.19141-.43945,1.17672,1.17672,0,0,0-.49023-.21192,8.05532,8.05532,0,0,0-.83789-.1123c-.09961-.01075-.2002-.02149-.30273-.03321-.10254-.01074-.20606-.02148-.31153-.0332q-.03369-.00732-.07031-.01172a.61427.61427,0,0,0-.07129-.0039,9.355,9.355,0,0,1-1.543-.30762,1.984,1.984,0,0,1-.98437-.70117,2.4187,2.4187,0,0,1-.40235-1.50684,2.44008,2.44008,0,0,1,1.61914-2.41113,5.075,5.075,0,0,1,1.90821-.31983,6.54338,6.54338,0,0,1,1.30761.13282,6.72022,6.72022,0,0,1,1.249.38183,6.04331,6.04331,0,0,1,1.10449.59766L421.39,113.0957a5.46951,5.46951,0,0,0-1.17969-.48974,4.30794,4.30794,0,0,0-1.17773-.17432,2.89921,2.89921,0,0,0-1.07129.15772q-.38232.15747-.38184.43994a.3719.3719,0,0,0,.20313.33593,1.51019,1.51019,0,0,0,.50683.17481c.20215.03564.4961.07568.88379.12012.04981.00537.09961.01123.14942.0166s.09961.01123.14941.0166a.31676.31676,0,0,0,.07422.0083.31936.31936,0,0,1,.0752.0083,10.37312,10.37312,0,0,1,1.63574.29883,2.12707,2.12707,0,0,1,1.07422.73047,2.512,2.512,0,0,1,.44433,1.61035,2.54062,2.54062,0,0,1-1.69336,2.51074,5.31728,5.31728,0,0,1-2.001.33692A8.0989,8.0989,0,0,1,417.57942,119.05957Z"/><path class="cls-3" d="M423.9388,110.45605h4.2168v1.94239h-4.2168Zm1.415,8.08106a2.44975,2.44975,0,0,1-.52637-1.70606v-8.88183h2.27344v8.31738a.81176.81176,0,0,0,.125.48535.42469.42469,0,0,0,.36523.16993h.56446v2.1914h-1.14551A2.14041,2.14041,0,0,1,425.35384,118.53711Z"/><path class="cls-3" d="M288.16341,151.44922h1.19531v12.06933h-1.19531Zm.80469,5.52832h7.19726v1.15381H288.9681Zm6.5498-5.52832h1.19531v12.06933H295.5179Z"/><path class="cls-3" d="M299.95052,162.94629a2.42727,2.42727,0,0,1-.83008-1.96777,2.381,2.381,0,0,1,.75976-1.88868,3.14377,3.14377,0,0,1,2.14551-.668H304.889l.11719,1.1123h-2.97265a1.94772,1.94772,0,0,0-1.28223.37793,1.4455,1.4455,0,0,0,.11621,2.19922,2.75009,2.75009,0,0,0,1.60644.40332,5.23345,5.23345,0,0,0,1.72657-.22461q.61377-.22412.61426-.63086l.17382,1.12891a2.29729,2.29729,0,0,1-.65918.46093,3.72817,3.72817,0,0,1-.92187.29493,5.91813,5.91813,0,0,1-1.11621.0996A3.53913,3.53913,0,0,1,299.95052,162.94629Zm4.86426-4.88965a2.23152,2.23152,0,0,0-.56055-1.623,2.11452,2.11452,0,0,0-1.58985-.57666,3.73176,3.73176,0,0,0-1.20312.19922,3.40554,3.40554,0,0,0-1.0459.56446l-.87207-.59766a3.23716,3.23716,0,0,1,1.291-.91748,4.66849,4.66849,0,0,1,1.78125-.32764,4.10546,4.10546,0,0,1,1.834.37744,2.62588,2.62588,0,0,1,1.16211,1.09571,3.51842,3.51842,0,0,1,.39844,1.731v5.53662h-1.19531Z"/><path class="cls-3" d="M308.83235,151.44922h1.19532v1.19531h-1.19532Zm0,3.45312h1.19532v8.61621h-1.19532Z"/><path class="cls-3" d="M312.18587,154.90234h4.30859v1.0293h-4.30859Zm.91308-1.17041a2.55746,2.55746,0,0,1,.49415-1.71435,1.86641,1.86641,0,0,1,1.48925-.56836h1.41211v1.1123h-1.21289a.92355.92355,0,0,0-.74219.28614,1.31134,1.31134,0,0,0-.24511.86767v9.80322H313.099Z"/><path class="cls-3" d="M318.65169,162.94629a2.42727,2.42727,0,0,1-.83008-1.96777,2.381,2.381,0,0,1,.75977-1.88868,3.14376,3.14376,0,0,1,2.1455-.668h2.86329l.11718,1.1123H320.7347a1.94772,1.94772,0,0,0-1.28223.37793,1.4455,1.4455,0,0,0,.11621,2.19922,2.7501,2.7501,0,0,0,1.60645.40332,5.23342,5.23342,0,0,0,1.72656-.22461q.61377-.22412.61426-.63086l.17383,1.12891a2.29743,2.29743,0,0,1-.65918.46093,3.72839,3.72839,0,0,1-.92188.29493,5.91813,5.91813,0,0,1-1.11621.0996A3.53913,3.53913,0,0,1,318.65169,162.94629Zm4.86426-4.88965a2.23152,2.23152,0,0,0-.56055-1.623,2.11451,2.11451,0,0,0-1.58984-.57666,3.73182,3.73182,0,0,0-1.20313.19922,3.40554,3.40554,0,0,0-1.0459.56446l-.87207-.59766a3.23716,3.23716,0,0,1,1.291-.91748,4.66849,4.66849,0,0,1,1.78125-.32764,4.10546,4.10546,0,0,1,1.834.37744,2.62588,2.62588,0,0,1,1.16211,1.09571,3.51842,3.51842,0,0,1,.39844,1.731v5.53662h-1.19531Z"/><path class="cls-3" d="M288.58626,305.1084h8.84863v2.1914h-8.84863Zm3.28711.98779h2.27441v11.08154h-2.27441Z"/><path class="cls-3" d="M303.8763,310.4873l-3.81055,4.624h4.03516v2.0664h-6.749v-1.959l3.918-4.59033H297.4681v-2.0669h6.4082Z"/><path class="cls-3" d="M307.46712,316.8623a2.94629,2.94629,0,0,1-1.27051-1.28222,4.376,4.376,0,0,1-.43555-2.0293v-1.40332a4.28864,4.28864,0,0,1,.43555-2.00488,2.93294,2.93294,0,0,1,1.27051-1.26953,4.86317,4.86317,0,0,1,4.02539,0,2.93294,2.93294,0,0,1,1.27051,1.26953,4.28864,4.28864,0,0,1,.43554,2.00488v1.42774a4.30235,4.30235,0,0,1-.43554,2.01269,2.95427,2.95427,0,0,1-1.27051,1.27441,4.81906,4.81906,0,0,1-4.02539,0Zm3.07519-2.15429a1.57924,1.57924,0,0,0,.38184-1.13281v-1.42774a1.55276,1.55276,0,0,0-.38184-1.1206,1.41366,1.41366,0,0,0-1.07128-.39844,1.38772,1.38772,0,0,0-1.05762.39844,1.564,1.564,0,0,0-.37793,1.1206v1.42774a1.60685,1.60685,0,0,0,.373,1.13281,1.37944,1.37944,0,0,0,1.0625.40332A1.40544,1.40544,0,0,0,310.54231,314.708Z"/><path class="cls-3" d="M315.27376,308.56152h2.44043v8.61621h-2.44043Zm4.44141,2.14991a1.71579,1.71579,0,0,0-.55664-.083,1.3241,1.3241,0,0,0-1.06641.44385,1.844,1.844,0,0,0-.37793,1.23242l-.17481-2.24073a3.08374,3.08374,0,0,1,.92579-1.1997,2.03537,2.03537,0,0,1,1.25-.42725,2.651,2.651,0,0,1,.97461.17041,2.12669,2.12669,0,0,1,.75976.502l-1.32812,1.85107A1.04327,1.04327,0,0,0,319.71517,310.71143Z"/><path class="cls-3" d="M322.7972,316.64258a2.66857,2.66857,0,0,1-.68457-2.00488,2.35055,2.35055,0,0,1,.76757-1.917,3.533,3.533,0,0,1,2.30372-.63965h2.1582l.11621,1.73536h-2.2666a1.22925,1.22925,0,0,0-.77149.20312.73954.73954,0,0,0-.25781.61817.68916.68916,0,0,0,.32422.627,1.87155,1.87155,0,0,0,.97949.20312,3.36094,3.36094,0,0,0,1.35742-.208.67971.67971,0,0,0,.44434-.64649l.17383,1.25293a1.17292,1.17292,0,0,1-.42774.78809,2.46744,2.46744,0,0,1-.94629.48633,4.37508,4.37508,0,0,1-1.19921.1621A2.88589,2.88589,0,0,1,322.7972,316.64258Zm4.4707-4.92676a1.11926,1.11926,0,0,0-.39844-.92139,1.74851,1.74851,0,0,0-1.1289-.32373,3.00746,3.00746,0,0,0-.95508.15772,2.80663,2.80663,0,0,0-.83789.43994l-1.41211-1.38623a3.39842,3.39842,0,0,1,1.36133-.91748,5.16644,5.16644,0,0,1,1.87695-.32764,4.47491,4.47491,0,0,1,1.92578.37744,2.7124,2.7124,0,0,1,1.21582,1.09571,3.37848,3.37848,0,0,1,.41895,1.73047v5.5371H327.2679Z"/><path class="cls-3" d="M334.64681,305.1084h2.27441v12.06933h-2.27441Zm.83007,0h7.09766v2.1914h-7.09766Zm0,5.08838h6.1836v2.19189h-6.1836Z"/><path class="cls-3" d="M345.4427,316.8623a2.94622,2.94622,0,0,1-1.2705-1.28222,4.376,4.376,0,0,1-.43555-2.0293v-1.40332a4.28864,4.28864,0,0,1,.43555-2.00488,2.93286,2.93286,0,0,1,1.2705-1.26953,4.86319,4.86319,0,0,1,4.0254,0,2.93286,2.93286,0,0,1,1.2705,1.26953,4.28864,4.28864,0,0,1,.43555,2.00488v1.42774a4.30235,4.30235,0,0,1-.43555,2.01269,2.95419,2.95419,0,0,1-1.2705,1.27441,4.81909,4.81909,0,0,1-4.0254,0Zm3.0752-2.15429a1.57928,1.57928,0,0,0,.38184-1.13281v-1.42774a1.5528,1.5528,0,0,0-.38184-1.1206,1.41368,1.41368,0,0,0-1.07129-.39844,1.38775,1.38775,0,0,0-1.05762.39844,1.56406,1.56406,0,0,0-.37793,1.1206v1.42774a1.60685,1.60685,0,0,0,.37305,1.13281,1.37946,1.37946,0,0,0,1.0625.40332A1.40546,1.40546,0,0,0,348.5179,314.708Z"/><path class="cls-3" d="M353.24935,308.56152h2.44043v8.61621h-2.44043Zm4.4414,2.14991a1.71575,1.71575,0,0,0-.55664-.083,1.32413,1.32413,0,0,0-1.06641.44385,1.844,1.844,0,0,0-.37792,1.23242L355.515,310.064a3.08372,3.08372,0,0,1,.92578-1.1997,2.03541,2.03541,0,0,1,1.25-.42725,2.65092,2.65092,0,0,1,.97461.17041,2.12664,2.12664,0,0,1,.75977.502l-1.32813,1.85107A1.04313,1.04313,0,0,0,357.69075,310.71143Z"/><path class="cls-3" d="M361.90267,316.84961a3.09371,3.09371,0,0,1-1.34864-1.31934,4.36922,4.36922,0,0,1-.46484-2.08789v-.97168a4.916,4.916,0,0,1,.44434-2.18261,3.09261,3.09261,0,0,1,1.29492-1.37793,4.16888,4.16888,0,0,1,2.05468-.47315,3.28283,3.28283,0,0,1,1.9336.56445,3.475,3.475,0,0,1,1.22461,1.63917,7.15532,7.15532,0,0,1,.41894,2.59375v.56445h-5.89355v-1.53516h3.81836l-.02539-.19922a2.00373,2.00373,0,0,0-.46875-1.15381,1.31052,1.31052,0,0,0-1.00782-.40673,1.647,1.647,0,0,0-1.27441.48974,1.96755,1.96755,0,0,0-.45215,1.38623v1.09571a1.81425,1.81425,0,0,0,.49317,1.36132,1.895,1.895,0,0,0,1.38183.48145,2.63683,2.63683,0,0,0,.90528-.16211,2.73562,2.73562,0,0,0,.81347-.46094l1.48633,1.32032a4.96477,4.96477,0,0,1-1.51172.95019,4.50516,4.50516,0,0,1-1.69336.33691A4.62425,4.62425,0,0,1,361.90267,316.84961Z"/><path class="cls-3" d="M371.24544,317.165a6.81868,6.81868,0,0,1-1.36914-.40234,4.96965,4.96965,0,0,1-1.12891-.63965l1.40235-1.751a5.48292,5.48292,0,0,0,1.30273.61426,4.29908,4.29908,0,0,0,1.29492.21582,3.39826,3.39826,0,0,0,1.23731-.17871c.293-.11914.44043-.28321.44043-.49414a.52538.52538,0,0,0-.19141-.43946,1.17677,1.17677,0,0,0-.49023-.21191,8.05258,8.05258,0,0,0-.83789-.1123c-.09961-.01075-.2002-.02149-.30274-.03321-.10254-.01074-.20605-.02148-.31152-.0332q-.03369-.00732-.07031-.01172a.61449.61449,0,0,0-.07129-.00391,9.35389,9.35389,0,0,1-1.543-.30761,1.984,1.984,0,0,1-.98438-.70118,2.41968,2.41968,0,0,1-.40234-1.50683,2.44008,2.44008,0,0,1,1.61914-2.41113,5.075,5.075,0,0,1,1.9082-.31983,6.5442,6.5442,0,0,1,1.30762.13281,6.71991,6.71991,0,0,1,1.249.38184,6.0428,6.0428,0,0,1,1.1045.59766l-1.35254,1.65185a5.46993,5.46993,0,0,0-1.17969-.48974,4.30763,4.30763,0,0,0-1.17774-.17432,2.89918,2.89918,0,0,0-1.07128.15771q-.38233.15747-.38184.44a.37189.37189,0,0,0,.20312.33593,1.51025,1.51025,0,0,0,.50684.17481c.20215.03613.49609.07519.88379.12012.0498.00585.09961.01171.14941.0166s.09961.01074.14942.0166a.29351.29351,0,0,0,.07422.00781.3457.3457,0,0,1,.07519.00879,10.261,10.261,0,0,1,1.63574.29883,2.127,2.127,0,0,1,1.07422.73047,2.512,2.512,0,0,1,.44434,1.61035,2.54064,2.54064,0,0,1-1.69336,2.51074,5.31734,5.31734,0,0,1-2.001.33691A8.0988,8.0988,0,0,1,371.24544,317.165Z"/><path class="cls-3" d="M377.60384,308.56152h4.21679v1.94239h-4.21679Zm1.415,8.08106a2.4497,2.4497,0,0,1-.52637-1.70606v-8.88183h2.27344v8.31738a.81176.81176,0,0,0,.125.48535.42467.42467,0,0,0,.36523.16992h.56445v2.19141h-1.1455A2.14045,2.14045,0,0,1,379.01888,316.64258Z"/><circle class="cls-4" cx="291.26374" cy="141.2967" r="3.95604"/><path class="cls-3" d="M329.81575,172.82666h8.5166v1.1123h-8.5166Zm3.66016.48975h1.19531V184.896h-1.19531Z"/><path class="cls-3" d="M339.74349,172.82666h1.19531V174.022h-1.19531Zm0,3.45313h1.19531V184.896h-1.19531Z"/><path class="cls-3" d="M343.76106,172.82666h1.19532V184.896h-1.19532Zm2.1084,11.84961a2.0849,2.0849,0,0,1-1.02929-1.13379l.11621-1.80078a2.35047,2.35047,0,0,0,.26562,1.083,2.16943,2.16943,0,0,0,.76367.84277,2.08544,2.08544,0,0,0,1.16211.32422,2.14741,2.14741,0,0,0,1.668-.64356,2.57308,2.57308,0,0,0,.58985-1.80566v-1.86719a2.64123,2.64123,0,0,0-.58985-1.83886,2.132,2.132,0,0,0-1.668-.65186,2.10284,2.10284,0,0,0-1.16211.31982,2.161,2.161,0,0,0-.76367.82569,2.2605,2.2605,0,0,0-.26562,1.0625l-.17383-1.66016a2.72969,2.72969,0,0,1,1.19043-1.20752,3.83769,3.83769,0,0,1,1.73144-.36963,2.87791,2.87791,0,0,1,1.56446.41065,2.584,2.584,0,0,1,.99218,1.19971,4.78984,4.78984,0,0,1,.33985,1.90087v1.876a4.57916,4.57916,0,0,1-.34863,1.876,2.597,2.597,0,0,1-1.02051,1.1914,3.03815,3.03815,0,0,1-1.61133.41114A3.97633,3.97633,0,0,1,345.86946,184.67627Z"/><path class="cls-3" d="M354.49446,184.56787a3.02052,3.02052,0,0,1-1.291-1.31933,4.53658,4.53658,0,0,1-.44434-2.0879V180.189a5.07428,5.07428,0,0,1,.42774-2.18261,3.05635,3.05635,0,0,1,1.24121-1.37793,3.83184,3.83184,0,0,1,1.959-.47315,3.47448,3.47448,0,0,1,1.8418.46485,2.96489,2.96489,0,0,1,1.167,1.35693,5.1919,5.1919,0,0,1,.40234,2.14551v.98828h-6.22558v-1.0791h5.11328v-.083a2.9477,2.9477,0,0,0-.60156-1.97949,2.11474,2.11474,0,0,0-1.69727-.70166,2.35386,2.35386,0,0,0-1.85937.73877,3.04665,3.04665,0,0,0-.65625,2.09179v1.09571a2.74086,2.74086,0,0,0,.69726,2.00488,2.635,2.635,0,0,0,1.9668.709,3.00083,3.00083,0,0,0,1.18359-.248,3.26612,3.26612,0,0,0,1.041-.70606l.81445.78028a4.5876,4.5876,0,0,1-1.42773.95019,4.105,4.105,0,0,1-1.61133.33692A4.27469,4.27469,0,0,1,354.49446,184.56787Z"/><path class="cls-3" d="M362.12239,176.27979h1.19531V184.896h-1.19531Zm4.40332,1.1289a2.81391,2.81391,0,0,0-.93359-.14111,2.31582,2.31582,0,0,0-1.67676.57666,2.11767,2.11767,0,0,0-.59766,1.59814l-.17382-1.66015a3.34175,3.34175,0,0,1,1.24023-1.19971,3.40138,3.40138,0,0,1,1.68164-.42725,3.15241,3.15241,0,0,1,1.06641.17041,2.38617,2.38617,0,0,1,.834.502l-.77148.99609A1.70148,1.70148,0,0,0,366.52571,177.40869Z"/><path class="cls-3" d="M369.6263,172.82666h1.19531V174.022H369.6263Zm0,3.45313h1.19531V184.896H369.6263Z"/><path class="cls-3" d="M374.05892,184.32373a2.42724,2.42724,0,0,1-.83008-1.96777,2.381,2.381,0,0,1,.75976-1.88867,3.14372,3.14372,0,0,1,2.14551-.668h2.86328l.11719,1.1123h-2.97266a1.94769,1.94769,0,0,0-1.28222.37793,1.4455,1.4455,0,0,0,.11621,2.19922,2.75007,2.75007,0,0,0,1.60644.40332,5.23349,5.23349,0,0,0,1.72657-.22461q.61377-.22412.61425-.63086l.17383,1.12891a2.29709,2.29709,0,0,1-.65918.46093,3.72817,3.72817,0,0,1-.92187.29493,5.91826,5.91826,0,0,1-1.11621.09961A3.53914,3.53914,0,0,1,374.05892,184.32373Zm4.86425-4.88965a2.23147,2.23147,0,0,0-.56054-1.623,2.11448,2.11448,0,0,0-1.58985-.57666,3.73175,3.73175,0,0,0-1.20312.19921,3.40575,3.40575,0,0,0-1.0459.56446l-.87207-.59766a3.23719,3.23719,0,0,1,1.291-.91748,4.66849,4.66849,0,0,1,1.78125-.32764,4.10547,4.10547,0,0,1,1.834.37744,2.62594,2.62594,0,0,1,1.16211,1.09571,3.51854,3.51854,0,0,1,.39844,1.731V184.896h-1.19532Z"/><path class="cls-3" d="M384.30208,184.8833a5.55985,5.55985,0,0,1-1.22461-.40234,4.4487,4.4487,0,0,1-1.00879-.63965l.68945-.83789a6.32682,6.32682,0,0,0,1.46094.73437,4.381,4.381,0,0,0,1.43555.26172,3.60507,3.60507,0,0,0,1.91406-.42383,1.33209,1.33209,0,0,0,.67578-1.19531,1.05274,1.05274,0,0,0-.32715-.8457,1.7715,1.7715,0,0,0-.82617-.38281,12.20525,12.20525,0,0,0-1.38574-.166c-.05566-.00488-.1123-.00879-.1709-.01172-.05762-.00293-.11426-.00683-.16992-.01269a.5049.5049,0,0,1-.06641-.00391.5062.5062,0,0,0-.0664-.00488,7.98633,7.98633,0,0,1-1.42774-.24805,1.94086,1.94086,0,0,1-.959-.62305,1.99509,1.99509,0,0,1-.38574-1.31982,2.41525,2.41525,0,0,1,.40234-1.41113,2.506,2.506,0,0,1,1.17871-.88819,5.07,5.07,0,0,1,1.86426-.30713,5.8294,5.8294,0,0,1,1.12891.11182,5.90611,5.90611,0,0,1,1.083.32422,4.92873,4.92873,0,0,1,.9502.51025l-.68945.82178a5.77116,5.77116,0,0,0-1.27735-.55176,4.42642,4.42642,0,0,0-1.24609-.19531,2.97428,2.97428,0,0,0-1.68457.40674,1.30627,1.30627,0,0,0-.59766,1.14551.91741.91741,0,0,0,.32324.76806,1.7922,1.7922,0,0,0,.81836.33594,13.1294,13.1294,0,0,0,1.35742.13281.60971.60971,0,0,1,.07032.00391.59412.59412,0,0,0,.07031.00488h.0498a.14739.14739,0,0,1,.04981.00781,7.37923,7.37923,0,0,1,1.54.22461,2.0819,2.0819,0,0,1,1.0664.68848,2.25279,2.25279,0,0,1,.43164,1.48535,2.34578,2.34578,0,0,1-.43164,1.42774,2.6748,2.6748,0,0,1-1.26171.90136,5.7223,5.7223,0,0,1-2.001.31153A6.5646,6.5646,0,0,1,384.30208,184.8833Z"/><circle class="cls-4" cx="387" cy="164.24176" r="3.95604"/><circle class="cls-3" cx="333.1978" cy="112.76923" r="3.95604"/><circle class="cls-3" cx="277.02198" cy="310.24176" r="3.95604"/><path class="cls-3" d="M254.1556,273.18262h8.5166v1.1123h-8.5166Zm3.66015.48974h1.19531V285.252h-1.19531Z"/><path class="cls-3" d="M264.40755,284.92383a3.02052,3.02052,0,0,1-1.291-1.31934,4.53651,4.53651,0,0,1-.44433-2.08789v-.97168a5.07448,5.07448,0,0,1,.42773-2.18262,3.05638,3.05638,0,0,1,1.24121-1.37792,3.83186,3.83186,0,0,1,1.959-.47315,3.47454,3.47454,0,0,1,1.84179.46484,2.96493,2.96493,0,0,1,1.167,1.35694,5.19184,5.19184,0,0,1,.40234,2.14551v.98828h-6.22559v-1.0791H268.599v-.083a2.94764,2.94764,0,0,0-.60156-1.97949,2.1147,2.1147,0,0,0-1.69726-.70166,2.35391,2.35391,0,0,0-1.85938.73876,3.0467,3.0467,0,0,0-.65625,2.0918v1.0957a2.74084,2.74084,0,0,0,.69727,2.00489,2.635,2.635,0,0,0,1.96679.709,3.00092,3.00092,0,0,0,1.1836-.248,3.26608,3.26608,0,0,0,1.041-.70606l.81446.78027a4.58768,4.58768,0,0,1-1.42774.9502,4.10494,4.10494,0,0,1-1.61133.33691A4.27465,4.27465,0,0,1,264.40755,284.92383Z"/><path class="cls-3" d="M273.23079,282.98633a1.23643,1.23643,0,0,0,.26953.85058.954.954,0,0,0,.752.30274h.79687v1.1123h-.99609a1.88168,1.88168,0,0,1-1.49024-.59765,2.46393,2.46393,0,0,1-.52734-1.68555v-9.78613h1.19531Z"/><path class="cls-3" d="M283.31575,273.18262h1.44434l4.44922,12.06933h-1.32813L284.03841,274.436,280.19466,285.252h-1.32813Zm-2.39844,8.02636h6.34961v1.11329h-6.34961Z"/><path class="cls-3" d="M296.19075,276.63574h1.26953L294.057,285.252h-.94629l-3.40332-8.61621h1.27051l2.60547,7.06348Z"/><path class="cls-3" d="M299.36946,273.18262h1.19532v1.19531h-1.19532Zm0,3.45312h1.19532V285.252h-1.19532Z"/><path class="cls-3" d="M308.95833,276.63574h1.26953l-3.40332,8.61621h-.94629l-3.40332-8.61621h1.27051l2.60547,7.06348Z"/><circle class="cls-4" cx="259.61538" cy="260.76923" r="3.95604"/><path class="cls-3" d="M284.63265,362.00732a3.29207,3.29207,0,0,1-1.27832-1.0332l.80566-.83008a2.49159,2.49159,0,0,0,.99609.81739,3.17446,3.17446,0,0,0,1.36133.28711,2.25515,2.25515,0,0,0,1.83789-.78516,3.38131,3.38131,0,0,0,.65235-2.2207v-8.05957H290.203v8.06835a5.03,5.03,0,0,1-.45313,2.22852,3.17255,3.17255,0,0,1-1.31543,1.41113,4.18268,4.18268,0,0,1-2.083.48633A4.0026,4.0026,0,0,1,284.63265,362.00732Z"/><path class="cls-3" d="M294.51155,361.92432a3.0205,3.0205,0,0,1-1.291-1.31934,4.5365,4.5365,0,0,1-.44434-2.08789v-.97168a5.07432,5.07432,0,0,1,.42774-2.18262,3.0564,3.0564,0,0,1,1.24121-1.37793,3.83184,3.83184,0,0,1,1.959-.47314,3.47448,3.47448,0,0,1,1.8418.46484,2.965,2.965,0,0,1,1.167,1.35694,5.19182,5.19182,0,0,1,.40234,2.1455v.98829h-6.22558v-1.07911H298.703v-.083a2.94774,2.94774,0,0,0-.60156-1.9795,2.11477,2.11477,0,0,0-1.69727-.70166,2.35389,2.35389,0,0,0-1.85937.73877,3.04668,3.04668,0,0,0-.65625,2.0918v1.0957a2.7409,2.7409,0,0,0,.69726,2.00489,2.635,2.635,0,0,0,1.9668.709,3.00067,3.00067,0,0,0,1.18359-.248,3.26593,3.26593,0,0,0,1.041-.70605l.81445.78027a4.58781,4.58781,0,0,1-1.42773.9502,4.10494,4.10494,0,0,1-1.61133.33691A4.27481,4.27481,0,0,1,294.51155,361.92432Z"/><path class="cls-3" d="M302.13851,353.63623h1.19531v8.61621h-1.19531Zm4.40332,1.12891a2.814,2.814,0,0,0-.9336-.14112,2.31588,2.31588,0,0,0-1.67676.57666,2.11732,2.11732,0,0,0-.59765,1.59766l-.17383-1.65967a3.34182,3.34182,0,0,1,1.24023-1.19971,3.40148,3.40148,0,0,1,1.68164-.42724,3.15241,3.15241,0,0,1,1.06641.17041,2.38628,2.38628,0,0,1,.834.502l-.77149.9961A1.70144,1.70144,0,0,0,306.54183,354.76514Z"/><path class="cls-3" d="M310.58968,358.87354a2.47363,2.47363,0,0,0,.58984,1.76464,2.17612,2.17612,0,0,0,1.668.626,2.2696,2.2696,0,0,0,1.65625-.57227,2.16479,2.16479,0,0,0,.585-1.61914l.11621,1.80176a2.593,2.593,0,0,1-1.042,1.07129,3.45148,3.45148,0,0,1-1.78809.43164,2.72881,2.72881,0,0,1-2.2041-.918,3.88616,3.88616,0,0,1-.77637-2.58593v-5.23731h1.19532Zm4.499-5.23731h1.18652v8.61621H315.0887Z"/><path class="cls-3" d="M320.45882,362.23975a5.55917,5.55917,0,0,1-1.22461-.40235,4.44848,4.44848,0,0,1-1.00879-.63965l.68945-.83789a6.32667,6.32667,0,0,0,1.46094.73438,4.38123,4.38123,0,0,0,1.43555.26172,3.60517,3.60517,0,0,0,1.91406-.42383,1.33211,1.33211,0,0,0,.67578-1.19531,1.05276,1.05276,0,0,0-.32715-.84571,1.77169,1.77169,0,0,0-.82617-.38281,12.20565,12.20565,0,0,0-1.38574-.166c-.05567-.00489-.11231-.00879-.1709-.01172-.05762-.00293-.11426-.00684-.16992-.0127a.5049.5049,0,0,1-.06641-.00391.50793.50793,0,0,0-.0664-.00488,7.98642,7.98642,0,0,1-1.42774-.248,1.94086,1.94086,0,0,1-.959-.623,1.99333,1.99333,0,0,1-.38575-1.31983,2.4152,2.4152,0,0,1,.40235-1.41113,2.506,2.506,0,0,1,1.17871-.88818,5.07,5.07,0,0,1,1.86426-.30713,5.8293,5.8293,0,0,1,1.1289.11182,5.90517,5.90517,0,0,1,1.083.32421,4.9296,4.9296,0,0,1,.9502.51026l-.68946.82178a5.77061,5.77061,0,0,0-1.27734-.55176,4.42645,4.42645,0,0,0-1.24609-.19532,2.97436,2.97436,0,0,0-1.68457.40674,1.30629,1.30629,0,0,0-.59766,1.14551.91744.91744,0,0,0,.32324.76807,1.7922,1.7922,0,0,0,.81836.33593,13.41016,13.41016,0,0,0,1.35742.13282.60969.60969,0,0,1,.07032.0039.59419.59419,0,0,0,.07031.00489h.0498a.14742.14742,0,0,1,.04981.00781,7.3779,7.3779,0,0,1,1.54.22461,2.08182,2.08182,0,0,1,1.0664.68847,2.25282,2.25282,0,0,1,.43164,1.48536,2.34575,2.34575,0,0,1-.43164,1.42773,2.67477,2.67477,0,0,1-1.26172.90137,5.72222,5.72222,0,0,1-2.001.31152A6.56521,6.56521,0,0,1,320.45882,362.23975Z"/><path class="cls-3" d="M328.07894,361.68018a2.42728,2.42728,0,0,1-.83008-1.96778,2.381,2.381,0,0,1,.75976-1.88867,3.14377,3.14377,0,0,1,2.14551-.668h2.86328l.11719,1.11231h-2.97266a1.94763,1.94763,0,0,0-1.28222.37793,1.44549,1.44549,0,0,0,.11621,2.19921,2.75,2.75,0,0,0,1.60644.40333,5.23349,5.23349,0,0,0,1.72657-.22461q.61376-.22413.61425-.63086l.17383,1.1289a2.29711,2.29711,0,0,1-.65918.46094,3.72817,3.72817,0,0,1-.92187.29492,5.91743,5.91743,0,0,1-1.11621.09961A3.53913,3.53913,0,0,1,328.07894,361.68018Zm4.86425-4.88965a2.2315,2.2315,0,0,0-.56054-1.623,2.11448,2.11448,0,0,0-1.58985-.57666,3.73176,3.73176,0,0,0-1.20312.19922,3.40573,3.40573,0,0,0-1.0459.56445l-.87207-.59765a3.23712,3.23712,0,0,1,1.291-.91748,4.6683,4.6683,0,0,1,1.78125-.32764,4.1055,4.1055,0,0,1,1.834.37744,2.62592,2.62592,0,0,1,1.16211,1.0957,3.51924,3.51924,0,0,1,.39844,1.73145v5.53613h-1.19532Z"/><path class="cls-3" d="M337.90706,359.98682a1.23644,1.23644,0,0,0,.26953.85058.954.954,0,0,0,.752.30274h.79688v1.1123h-.99609a1.88168,1.88168,0,0,1-1.49024-.59765,2.46394,2.46394,0,0,1-.52734-1.68555v-9.78613h1.19531Z"/><path class="cls-3" d="M343.12093,361.92432a3.02046,3.02046,0,0,1-1.291-1.31934,4.53651,4.53651,0,0,1-.44433-2.08789v-.97168a5.07433,5.07433,0,0,1,.42773-2.18262,3.05645,3.05645,0,0,1,1.24121-1.37793,3.83185,3.83185,0,0,1,1.959-.47314,3.47444,3.47444,0,0,1,1.84179.46484,2.96485,2.96485,0,0,1,1.167,1.35694,5.19166,5.19166,0,0,1,.40235,2.1455v.98829h-6.22559v-1.07911h5.11328v-.083a2.94769,2.94769,0,0,0-.60156-1.9795,2.11476,2.11476,0,0,0-1.69726-.70166,2.3539,2.3539,0,0,0-1.85938.73877,3.04668,3.04668,0,0,0-.65625,2.0918v1.0957a2.74086,2.74086,0,0,0,.69727,2.00489,2.635,2.635,0,0,0,1.96679.709,3.00076,3.00076,0,0,0,1.1836-.248,3.26589,3.26589,0,0,0,1.041-.70605l.81446.78027a4.58785,4.58785,0,0,1-1.42774.9502,4.10494,4.10494,0,0,1-1.61133.33691A4.27476,4.27476,0,0,1,343.12093,361.92432Z"/><path class="cls-3" d="M350.74788,353.63623h1.19531v8.61621h-1.19531Zm5.39551,3.39453a2.638,2.638,0,0,0-.54395-1.77588,1.932,1.932,0,0,0-1.54785-.63086,2.0682,2.0682,0,0,0-1.55664.56885,2.20845,2.20845,0,0,0-.55176,1.60547l-.17383-1.65967a2.76776,2.76776,0,0,1,1.12891-1.24512,3.33541,3.33541,0,0,1,1.62695-.38183,2.744,2.744,0,0,1,1.52247.41064,2.54275,2.54275,0,0,1,.96289,1.19971,4.9415,4.9415,0,0,1,.32812,1.90088v5.22949h-1.19531Zm5.39551,0a2.62367,2.62367,0,0,0-.54786-1.77588,1.93584,1.93584,0,0,0-1.54394-.63086,1.98429,1.98429,0,0,0-1.55664.61426,2.49223,2.49223,0,0,0-.55176,1.72608l-.50684-1.24463a3.69354,3.69354,0,0,1,1.1543-1.63916,2.82439,2.82439,0,0,1,1.77637-.56885,3.01323,3.01323,0,0,1,1.60644.41064,2.59564,2.59564,0,0,1,1.01661,1.19971,4.68363,4.68363,0,0,1,.34863,1.90088v5.22949H361.5389Z"/><circle class="cls-4" cx="324.49451" cy="339.6044" r="3.95604"/><path class="cls-3" d="M228.555,451.169h1.19531v12.06933H228.555Zm.99609,10.957h3.3125a3.50506,3.50506,0,0,0,2.23633-.57715,1.98369,1.98369,0,0,0,.70117-1.62305v-.02441a2.68939,2.68939,0,0,0-.26074-1.22852,1.77609,1.77609,0,0,0-.82226-.793,3.23839,3.23839,0,0,0-1.44043-.27734H229.5511v-1.11328h3.72657a2.61194,2.61194,0,0,0,1.77246-.52246,2.31556,2.31556,0,0,0-.05371-3.1543,3.02669,3.02669,0,0,0-1.95118-.53125H229.5511V451.169h3.75977a4.31485,4.31485,0,0,1,1.959.39843,2.64853,2.64853,0,0,1,1.17969,1.12891,3.65209,3.65209,0,0,1,.38965,1.74316,2.82311,2.82311,0,0,1-.24121,1.15821,2.44084,2.44084,0,0,1-.73438.93359,2.7199,2.7199,0,0,1-1.22461.52246,2.65211,2.65211,0,0,1,1.26172.51953,2.70285,2.70285,0,0,1,.81446,1.02442,3.155,3.155,0,0,1,.28125,1.32812v.02539a3.38479,3.38479,0,0,1-.43164,1.72656,2.899,2.899,0,0,1-1.23633,1.1543,4.11792,4.11792,0,0,1-1.876.40625H229.5511Z"/><path class="cls-3" d="M240.849,462.91016a3.0205,3.0205,0,0,1-1.291-1.31934,4.5365,4.5365,0,0,1-.44434-2.08789v-.97168a5.0728,5.0728,0,0,1,.42774-2.18262,3.0539,3.0539,0,0,1,1.24121-1.37793,3.83194,3.83194,0,0,1,1.959-.47363,3.479,3.479,0,0,1,1.8418.46484,2.96861,2.96861,0,0,1,1.167,1.35743,5.19006,5.19006,0,0,1,.40235,2.1455v.98829h-6.22559V458.374h5.11328v-.083a2.94594,2.94594,0,0,0-.60156-1.9795,2.11508,2.11508,0,0,0-1.69727-.70214,2.35256,2.35256,0,0,0-1.85937.73925,3.045,3.045,0,0,0-.65625,2.0918v1.0957a2.7409,2.7409,0,0,0,.69726,2.00489,2.635,2.635,0,0,0,1.9668.709,3.00067,3.00067,0,0,0,1.18359-.248,3.26593,3.26593,0,0,0,1.041-.70605l.81445.78027a4.58781,4.58781,0,0,1-1.42773.9502,4.10494,4.10494,0,0,1-1.61133.33691A4.27483,4.27483,0,0,1,240.849,462.91016Z"/><path class="cls-3" d="M249.96321,462.91016a3.0205,3.0205,0,0,1-1.291-1.31934,4.5365,4.5365,0,0,1-.44434-2.08789v-.97168a5.0728,5.0728,0,0,1,.42774-2.18262,3.0539,3.0539,0,0,1,1.24121-1.37793,3.83194,3.83194,0,0,1,1.959-.47363,3.479,3.479,0,0,1,1.8418.46484,2.96867,2.96867,0,0,1,1.167,1.35743,5.19023,5.19023,0,0,1,.40234,2.1455v.98829h-6.22558V458.374h5.11328v-.083a2.946,2.946,0,0,0-.60156-1.9795,2.11508,2.11508,0,0,0-1.69727-.70214,2.35256,2.35256,0,0,0-1.85937.73925,3.045,3.045,0,0,0-.65625,2.0918v1.0957a2.7409,2.7409,0,0,0,.69726,2.00489,2.635,2.635,0,0,0,1.9668.709,3.00067,3.00067,0,0,0,1.18359-.248,3.26593,3.26593,0,0,0,1.041-.70605l.81445.78027a4.58781,4.58781,0,0,1-1.42773.9502,4.10494,4.10494,0,0,1-1.61133.33691A4.27481,4.27481,0,0,1,249.96321,462.91016Z"/><path class="cls-3" d="M257.59114,454.62207h1.19531v8.61621h-1.19531Zm4.40332,1.12891a2.80082,2.80082,0,0,0-.93359-.1416,2.314,2.314,0,0,0-1.67676.57714,2.11656,2.11656,0,0,0-.59766,1.59766l-.17382-1.66016a3.34049,3.34049,0,0,1,1.24023-1.19922,3.39668,3.39668,0,0,1,1.68164-.42773,3.1402,3.1402,0,0,1,1.06641.1709,2.37884,2.37884,0,0,1,.834.50195l-.77148.9961A1.69592,1.69592,0,0,0,261.99446,455.751Z"/><path class="cls-3" d="M269.8929,463.19727a6.29876,6.29876,0,0,1-1.457-.498,6.1612,6.1612,0,0,1-1.26563-.83008l.72168-.94726a5.19052,5.19052,0,0,0,1.66895.99609,5.75548,5.75548,0,0,0,1.9834.332,4.057,4.057,0,0,0,2.40332-.61328,2.00679,2.00679,0,0,0,.85058-1.72656v-.00879a1.60273,1.60273,0,0,0-.36914-1.10449,2.26635,2.26635,0,0,0-.9541-.62208,10.40633,10.40633,0,0,0-1.50683-.38183.395.395,0,0,0-.05372-.0127.57361.57361,0,0,1-.0625-.01172l-.24121-.05078a15.20324,15.20324,0,0,1-2.0332-.50195,2.93108,2.93108,0,0,1-1.29883-.88769,2.59291,2.59291,0,0,1-.53515-1.73926v-.00879a3.49946,3.49946,0,0,1,.50195-1.91309,3.16157,3.16157,0,0,1,1.46484-1.208,5.83947,5.83947,0,0,1,2.31641-.415,5.70776,5.70776,0,0,1,1.26562.1416,6.27909,6.27909,0,0,1,1.23633.41894,7.4012,7.4012,0,0,1,1.208.70117l-.70605.93848a6.5339,6.5339,0,0,0-1.52735-.81738,4.30841,4.30841,0,0,0-1.47656-.27051,3.69749,3.69749,0,0,0-2.291.623,2.07684,2.07684,0,0,0-.81445,1.751v.00879a1.42938,1.42938,0,0,0,.40723,1.0752,2.52623,2.52623,0,0,0,1.00879.585,16.205,16.205,0,0,0,1.64746.39844c.02246.00488.0459.01074.07031.0166.02539.00488.05176.01074.0791.0166a.91563.91563,0,0,1,.0957.02051.722.722,0,0,0,.09571.02051,11.54062,11.54062,0,0,1,1.89258.53125,2.976,2.976,0,0,1,1.25683.93457,2.68581,2.68581,0,0,1,.50293,1.71386v.0166a3.32724,3.32724,0,0,1-.52344,1.88868,3.2648,3.2648,0,0,1-1.51464,1.19531,6.26318,6.26318,0,0,1-2.39551.41113A7.95017,7.95017,0,0,1,269.8929,463.19727Z"/><path class="cls-3" d="M278.2181,451.169h1.19531v12.06933H278.2181Zm5.72753,6.84765a2.47055,2.47055,0,0,0-.60156-1.77637,2.23894,2.23894,0,0,0-1.69824-.63085,2.28964,2.28964,0,0,0-1.64746.56054,2.09956,2.09956,0,0,0-.585,1.58985l-.17383-1.66016a2.80024,2.80024,0,0,1,1.21094-1.22461,3.86876,3.86876,0,0,1,1.752-.37793,2.67149,2.67149,0,0,1,2.1709.918,3.93051,3.93051,0,0,1,.76758,2.59375v5.22949h-1.19532Z"/><path class="cls-3" d="M289.20052,462.91016a3.02046,3.02046,0,0,1-1.291-1.31934,4.53651,4.53651,0,0,1-.44433-2.08789v-.97168a5.0728,5.0728,0,0,1,.42773-2.18262,3.054,3.054,0,0,1,1.24121-1.37793,3.832,3.832,0,0,1,1.959-.47363,3.47894,3.47894,0,0,1,1.84179.46484,2.96861,2.96861,0,0,1,1.167,1.35743,5.19006,5.19006,0,0,1,.40235,2.1455v.98829h-6.22559V458.374h5.11328v-.083a2.94594,2.94594,0,0,0-.60156-1.9795,2.11507,2.11507,0,0,0-1.69726-.70214,2.35257,2.35257,0,0,0-1.85938.73925,3.045,3.045,0,0,0-.65625,2.0918v1.0957a2.74086,2.74086,0,0,0,.69727,2.00489,2.635,2.635,0,0,0,1.96679.709,3.00076,3.00076,0,0,0,1.1836-.248,3.26589,3.26589,0,0,0,1.041-.70605l.81446.78027a4.58785,4.58785,0,0,1-1.42774.9502,4.10494,4.10494,0,0,1-1.61133.33691A4.27476,4.27476,0,0,1,289.20052,462.91016Z"/><path class="cls-3" d="M302.23372,454.62207h1.26953l-3.40332,8.61621h-.94629l-3.40332-8.61621h1.27051l2.60547,7.06348Z"/><path class="cls-3" d="M306.48372,462.91016a3.02052,3.02052,0,0,1-1.291-1.31934,4.53663,4.53663,0,0,1-.44433-2.08789v-.97168a5.073,5.073,0,0,1,.42773-2.18262,3.054,3.054,0,0,1,1.24121-1.37793,3.832,3.832,0,0,1,1.959-.47363,3.479,3.479,0,0,1,1.8418.46484,2.96872,2.96872,0,0,1,1.167,1.35743,5.19023,5.19023,0,0,1,.40234,2.1455v.98829h-6.22558V458.374h5.11328v-.083a2.94594,2.94594,0,0,0-.60157-1.9795,2.115,2.115,0,0,0-1.69726-.70214,2.35258,2.35258,0,0,0-1.85938.73925,3.045,3.045,0,0,0-.65625,2.0918v1.0957a2.7409,2.7409,0,0,0,.69727,2.00489,2.635,2.635,0,0,0,1.9668.709,3.00074,3.00074,0,0,0,1.18359-.248,3.266,3.266,0,0,0,1.041-.70605l.81445.78027a4.58785,4.58785,0,0,1-1.42774.9502,4.10493,4.10493,0,0,1-1.61132.33691A4.27478,4.27478,0,0,1,306.48372,462.91016Z"/><circle class="cls-4" cx="267.52747" cy="440.37363" r="3.95604"/><path class="cls-3" d="M264.514,740.29492h1.19532v12.06836H264.514Zm.82227,0h6.93066v1.11133h-6.93066Zm0,5.51953h6.01758v1.11231h-6.01758Zm0,5.4375h6.93066v1.11133h-6.93066Z"/><path class="cls-3" d="M274.75716,740.29492h1.19531v1.19531h-1.19531Zm0,3.45313h1.19531v8.61523h-1.19531Z"/><path class="cls-3" d="M279.97005,750.09766a1.24083,1.24083,0,0,0,.26953.85156.95718.95718,0,0,0,.752.30273h.79688v1.11133h-.9961a1.88168,1.88168,0,0,1-1.49023-.59765,2.46224,2.46224,0,0,1-.52734-1.68555v-9.78516h1.19531Z"/><path class="cls-3" d="M284.02864,751.791a2.42661,2.42661,0,0,1-.83008-1.9668,2.3796,2.3796,0,0,1,.75977-1.88867,3.14372,3.14372,0,0,1,2.14551-.668h2.86328l.11719,1.11133h-2.97266a1.94787,1.94787,0,0,0-1.28223.3789,1.44552,1.44552,0,0,0,.11621,2.19922,2.75763,2.75763,0,0,0,1.60645.40235,5.20738,5.20738,0,0,0,1.72656-.22461q.61377-.22266.61426-.63086l.17383,1.1289a2.25982,2.25982,0,0,1-.65918.46094,3.68768,3.68768,0,0,1-.92188.29492,5.91728,5.91728,0,0,1-1.11621.09961A3.53915,3.53915,0,0,1,284.02864,751.791Zm4.86426-4.88868a2.23143,2.23143,0,0,0-.56055-1.623,2.11281,2.11281,0,0,0-1.58984-.57715,3.73155,3.73155,0,0,0-1.20313.19922,3.41608,3.41608,0,0,0-1.04589.56445l-.87207-.59766a3.23145,3.23145,0,0,1,1.291-.917,4.65923,4.65923,0,0,1,1.78125-.32812,4.11212,4.11212,0,0,1,1.834.37695,2.626,2.626,0,0,1,1.16211,1.0957,3.52315,3.52315,0,0,1,.39843,1.73145v5.53613H288.8929Z"/><path class="cls-3" d="M291.99837,743.74805h3.88476v1.02929h-3.88476Zm1.374,8.08008a2.588,2.588,0,0,1-.48535-1.70508v-8.88282h1.19531v8.89844a1.30245,1.30245,0,0,0,.248.85547.90816.90816,0,0,0,.73926.29883h.81347v1.11133h-.97949A1.89049,1.89049,0,0,1,293.37239,751.82813Z"/><circle class="cls-4" cx="274.25275" cy="783.36264" r="3.95604"/></svg>