<svg xmlns="http://www.w3.org/2000/svg" xmlns:xlink="http://www.w3.org/1999/xlink" width="179.56" height="434.25" viewBox="0 0 179.56 434.25">
  <defs>
    <filter id="Path_178" x="0" y="0" width="179.56" height="434.25" filterUnits="userSpaceOnUse">
      <feOffset dy="9" input="SourceAlpha"/>
      <feGaussianBlur stdDeviation="3" result="blur"/>
      <feFlood flood-opacity="0.161"/>
      <feComposite operator="in" in2="blur"/>
      <feComposite in="SourceGraphic"/>
    </filter>
  </defs>
  <g id="Group_222" data-name="Group 222" transform="translate(-110.443 -222)">
    <g id="Group_150" data-name="Group 150" transform="translate(-108.057 -9.607)">
      <g id="map" transform="translate(227.5 231.607)">
        <g transform="matrix(1, 0, 0, 1, -9, 0)" filter="url(#Path_178)">
          <path id="Path_178-2" data-name="Path 178" d="M11.9,234.641l33.042,66.488,1.612,11.685L53,318.052,51.39,328.931l8.462,2.82s34.616,66.486,33.426,76.963l1.642,8.059s5.631,4.523,4.825,6.851l5.238-6.851,1.612-6.85,2.016-6.044,1.612-15.313,4.03-5.64V366.809l7.8-12.365s-1.547-15.867-.147-22.289-5.239-7.253-5.239-7.253,2.418-19.341,8.865-27.4l3.627-13.7s4.836-3.628,4.03-8.462c0,0-.806-8.059,7.253-10.879v-9.671s-15.78-9.017-13.3-28.61c0,0-5.206-1.753,2.325-17.4,0,0-3.779-35.615,17.016-34.177,0,0,5.982-2.982-2.016-11.283,0,0-2.014-5.642.4-8.059,0,0-.806-5.642-2.016-7.656,0,0-1.208-3.224,3.224-14.909a71,71,0,0,0-1.208-12.9s-2.82-13.7,0-20.551c0,0,.806-4.432-2.418-3.626,0,0,.806-3.627,2.418-4.03,0,0-1.208-7.656-6.044-9.671,0,0,.4-7.253-4.03-8.864,0,0-2.418-11.685,9.671-11.685,0,0,10.073,6.448,7.656,13.3,0,0,13.3-9.671,16.923-16.117V52.91s5.941-4.059,4.03-6.448l-4.836-6.044.4-9.268h-3.224s-.806-6.851.806-8.463l-3.224-1.612V16.644l-3.224-3.627-.4-5.642h-6.448S139.27,22.938,135.2,14.225c-5.2,2.02,6.965,26.594-19.343,25.386,0,0-4.075-8.575-25.789.4,0,0-3.876,6.932-1.208,20.551v2.418l-4.432-.4s-7.123,13.976-11.277,43.6C64.413,168.528,21.671,232.384,11.9,234.641Z" transform="translate(-2.9 -7.38)" fill="#87bb40"/>
        </g>
        <path id="Path_179" data-name="Path 179" d="M94.278,53.1c-1.934-1.354-.4-9.268,7.522-8.865,0,0,6.581,2.149,6.581,11.283S98.6,64.113,98.307,62.238,99.245,57.8,94.278,53.1Z" transform="translate(30.361 11.705)" fill="#0575a0"/>
        <path id="Path_180" data-name="Path 180" d="M108.739,159.53s-4.836-2.418-5.1,0c0,0-1.881,13.97,0,15.311,0,0,2.149,7.791,3.492,11.552,0,0,2.149,10.209-1.881,10.209,0,0-19.878-8.6-14.774-29.818a2.447,2.447,0,0,1-2.149-2.418s3.886-9.846,4.153-14.681c0,0-4.96-32.33,15.188-30.718,0,0,10.476,0,7.522,18,0,0-1.638,12.088.525,13.968,0,0-.524,20.686-3.479,20.417C112.233,171.35,110.082,170.274,108.739,159.53Z" transform="translate(27.668 50.374)" fill="#0575a0"/>
             <!-- <path id="Path_180" data-name="Path 180" d="M108.739,159.53s-4.836-2.418-5.1,0c0,0-1.881,13.97,0,15.311,0,0,2.149,7.791,3.492,11.552,0,0,2.149,10.209-1.881,10.209,0,0-19.878-8.6-14.774-29.818a2.447,2.447,0,0,1-2.149-2.418s3.886-9.846,4.153-14.681c0,0-4.96-32.33,15.188-30.718,0,0,10.476,0,7.522,18,0,0-1.638,12.088.525,13.968,0,0-.524,20.686-3.479,20.417C112.233,171.35,110.082,170.274,108.739,159.53Z" transform="translate(27.668 50.374)" fill="#36a9e1"/> -->

      </g>
    </g>
    <text id="GOLANI" transform="translate(215 366)" fill="#000700" font-size="14" font-family="Assistant, Gilroy, sans-serif" font-weight="500"><tspan x="-40" y="0">Golani Junction</tspan></text>
    <text id="TZORA" transform="translate(193 459)" fill="#000700" font-size="14" font-family="Assistant, Gilroy, sans-serif" font-weight="500"><tspan x="-40" y="0">Tzora Forest</tspan></text>
    <!-- <text id="GOLANI" transform="translate(215 366)" fill="#001707" font-size="13" font-family="OpenSans-Bold, Open Sans" font-weight="700"><tspan x="-19.595" y="0">Lavi Forest</tspan></text>
    <text id="TZORA" transform="translate(193 459)" fill="#001707" font-size="13" font-family="OpenSans-Bold, Open Sans" font-weight="700"><tspan x="-16.521" y="0">Tzora Forest</tspan></text> -->
  </g>
</svg>
