<svg xmlns="http://www.w3.org/2000/svg" width="50" height="40.582" viewBox="0 0 50 40.582">
  <g id="photo-camera" transform="translate(-152 -85.522)">
    <g id="Group_123" data-name="Group 123" transform="translate(152 85.522)">
      <path id="Path_135" data-name="Path 135" d="M0,58.568V80.63a6.106,6.106,0,0,0,6.1,6.1H43.9a6.106,6.106,0,0,0,6.1-6.1V58.568a5.809,5.809,0,0,0-5.806-5.806H36.071l-.194-.847a7.417,7.417,0,0,0-7.265-5.765H21.378a7.434,7.434,0,0,0-7.265,5.765l-.194.847H5.806A5.816,5.816,0,0,0,0,58.568Zm14.918-3.306a1.244,1.244,0,0,0,1.214-.969l.418-1.816a4.936,4.936,0,0,1,4.827-3.827h7.235a4.936,4.936,0,0,1,4.827,3.827l.418,1.816a1.254,1.254,0,0,0,1.214.969h9.112a3.305,3.305,0,0,1,3.306,3.306V80.63a3.6,3.6,0,0,1-3.6,3.6H6.1a3.6,3.6,0,0,1-3.6-3.6V58.568a3.305,3.305,0,0,1,3.306-3.306h9.112Z" transform="translate(0 -46.15)" fill="#fff"/>
      <circle id="Ellipse_9" data-name="Ellipse 9" cx="1.673" cy="1.673" r="1.673" transform="translate(6.786 12.776)" fill="#fff"/>
      <path id="Path_136" data-name="Path 136" d="M152.6,196.15a10.5,10.5,0,1,0-10.5-10.5A10.517,10.517,0,0,0,152.6,196.15Zm0-18.5a8,8,0,1,1-8,8A8.013,8.013,0,0,1,152.6,177.65Z" transform="translate(-127.6 -161.987)" fill="#fff"/>
    </g>
  </g>
</svg>
