<svg xmlns="http://www.w3.org/2000/svg" width="48" height="40.574" viewBox="0 0 48 40.574">
  <g id="plant-with-leaves" transform="translate(0 -42.422)">
    <path id="Path_257" data-name="Path 257" d="M34.11,47.494C28.982,48.841,27.2,53.256,27.5,55.1c.094-.057.186-.111.281-.171.451-.277.941-.538,1.45-.808s1.051-.523,1.6-.779c.276-.129.565-.242.851-.358l.431-.176c.186-.073.3-.1.454-.157l.865-.288.894-.253c.6-.165,1.175-.311,1.738-.427,1.123-.255,2.179-.441,3.088-.582,1.819-.277,3.059-.33,3.059-.33l-.78.334c-.5.208-1.21.482-2.067.812-.431.157-.894.328-1.385.507l-1.546.547c-.531.187-1.075.382-1.632.581s-1.113.4-1.683.62c-.531.2-1.083.464-1.625.678-.538.245-1.46.565-1.981.788-.629.264-1.026.406-1.426.618-4.474,2.611-6.456,7.233-7.665,12.123-.215-4.594-1.178-9.051-4.5-12.339l.011-.006q-.674-.631-1.4-1.357c-.394-.407-.811-.811-1.217-1.242-.416-.406-.826-.86-1.243-1.247-.445-.421-.885-.837-1.319-1.217s-.867-.782-1.285-1.159-.833-.746-1.22-1.1-.75-.689-1.085-1c-.667-.629-1.221-1.156-1.6-1.539l-.591-.607s1.124.522,2.7,1.472c.786.477,1.69,1.052,2.632,1.717.475.323.953.678,1.442,1.058.241.192.485.382.728.575l.69.6c.121.109.216.179.359.318l.333.328c.222.218.445.433.65.656.413.445.818.887,1.183,1.33s.72.873,1.031,1.3c.066.092.128.176.194.265.981-1.592,1.019-6.354-3.209-9.558C9.1,42.148,2.686,43.711,0,42.422c2.713,4.15,2.192,6.92,6.749,11.474,3.045,3.047,5.889,3.235,7.8,2.705,3.9,3.751,4.5,9.469,4.507,14.942a2.3,2.3,0,0,0-1.442-.576,3.46,3.46,0,0,0-3.276,2.152A4.457,4.457,0,0,0,8.366,77c-1.652-.614-3.747,1.286-3.747,2.936a3.023,3.023,0,0,0,2.9,3.018L33.074,83S35.8,81.528,35.8,79.932A3.031,3.031,0,0,0,32.767,76.9a2.986,2.986,0,0,0-.668.08c.014-.117-.292-5.263-4.763-3.2-.347-1.61-.8-2.818-3.489-2.818a4.175,4.175,0,0,0-2.792.969C22.173,66.244,23.9,60.3,28.941,57.358a.573.573,0,0,0,.123-.111c1.558,1.249,4.28,2.215,8.322.537,5.948-2.471,6.524-5.229,10.615-8.028C45.028,49.922,39.695,46.028,34.11,47.494Zm-13.926,25.4.167-.168c-.084.131-.136.226-.136.226S20.2,72.918,20.185,72.893Z" fill="#87bb40"/>
  </g>
</svg>
