<svg xmlns="http://www.w3.org/2000/svg" xmlns:xlink="http://www.w3.org/1999/xlink" width="76" height="76" viewBox="0 0 76 76">
  <defs>
    <filter id="Path_269" x="0" y="0" width="76" height="76" filterUnits="userSpaceOnUse">
      <feOffset dy="6" input="SourceAlpha"/>
      <feGaussianBlur stdDeviation="3.5" result="blur"/>
      <feFlood flood-opacity="0.161"/>
      <feComposite operator="in" in2="blur"/>
      <feComposite in="SourceGraphic"/>
    </filter>
  </defs>
  <g id="Group_201" data-name="Group 201" transform="translate(-170.5 -276.5)">
    <g transform="matrix(1, 0, 0, 1, 170.5, 276.5)" filter="url(#Path_269)">
      <g id="Path_269-2" data-name="Path 269" transform="translate(10.5 4.5)" fill="#fff">
        <path d="M 27.5 54.5 C 23.85479927062988 54.5 20.31891059875488 53.78619003295898 16.99053955078125 52.37841033935547 C 13.77544975280762 51.01855087280273 10.88790988922119 49.07167816162109 8.408120155334473 46.59188079833984 C 5.928319931030273 44.11209106445313 3.981450080871582 41.22454833984375 2.62158989906311 38.00946044921875 C 1.213809967041016 34.68109130859375 0.5 31.14520072937012 0.5 27.5 C 0.5 23.85479927062988 1.213809967041016 20.31891059875488 2.62158989906311 16.99053955078125 C 3.981450080871582 13.77544975280762 5.928319931030273 10.88790988922119 8.408120155334473 8.408120155334473 C 10.88790988922119 5.928319931030273 13.77544975280762 3.981450080871582 16.99053955078125 2.62158989906311 C 20.31891059875488 1.213809967041016 23.85479927062988 0.5 27.5 0.5 C 31.14520072937012 0.5 34.68109130859375 1.213809967041016 38.00946044921875 2.62158989906311 C 41.22454833984375 3.981450080871582 44.11209106445313 5.928319931030273 46.59188079833984 8.408120155334473 C 49.07167816162109 10.88790988922119 51.01855087280273 13.77544975280762 52.37841033935547 16.99053955078125 C 53.78619003295898 20.31891059875488 54.5 23.85479927062988 54.5 27.5 C 54.5 31.14520072937012 53.78619003295898 34.68109130859375 52.37841033935547 38.00946044921875 C 51.01855087280273 41.22454833984375 49.07167816162109 44.11209106445313 46.59188079833984 46.59188079833984 C 44.11209106445313 49.07167816162109 41.22454833984375 51.01855087280273 38.00946044921875 52.37841033935547 C 34.68109130859375 53.78619003295898 31.14520072937012 54.5 27.5 54.5 Z" stroke="none"/>
        <path d="M 27.5 1 C 23.92207908630371 1 20.45172119140625 1.700519561767578 17.18531036376953 3.082088470458984 C 14.02983093261719 4.416751861572266 11.19570922851563 6.327629089355469 8.761669158935547 8.761669158935547 C 6.327629089355469 11.19570922851563 4.416751861572266 14.02983093261719 3.082088470458984 17.18531036376953 C 1.700519561767578 20.45172119140625 1 23.92207908630371 1 27.5 C 1 31.07792091369629 1.700519561767578 34.54827880859375 3.082088470458984 37.81468963623047 C 4.416751861572266 40.97016906738281 6.327629089355469 43.80429077148438 8.761669158935547 46.23833084106445 C 11.19570922851563 48.67237091064453 14.02983093261719 50.583251953125 17.18531036376953 51.91791152954102 C 20.45172119140625 53.29948043823242 23.92207908630371 54 27.5 54 C 31.07792091369629 54 34.54827880859375 53.29948043823242 37.81468963623047 51.91791152954102 C 40.97016906738281 50.583251953125 43.80429077148438 48.67237091064453 46.23833084106445 46.23833084106445 C 48.67237091064453 43.80429077148438 50.583251953125 40.97016906738281 51.91791152954102 37.81468963623047 C 53.29948043823242 34.54827880859375 54 31.07792091369629 54 27.5 C 54 23.92207908630371 53.29948043823242 20.45172119140625 51.91791152954102 17.18531036376953 C 50.583251953125 14.02983093261719 48.67237091064453 11.19570922851563 46.23833084106445 8.761669158935547 C 43.80429077148438 6.327629089355469 40.97016906738281 4.416751861572266 37.81468963623047 3.082088470458984 C 34.54827880859375 1.700519561767578 31.07792091369629 1 27.5 1 M 27.5 0 C 42.68782806396484 0 55 12.31216812133789 55 27.5 C 55 42.68782806396484 42.68782806396484 55 27.5 55 C 12.31216812133789 55 0 42.68782806396484 0 27.5 C 0 12.31216812133789 12.31216812133789 0 27.5 0 Z" stroke="none" fill="#fff"/>
      </g>
    </g>
    <g id="Group_208" data-name="Group 208" transform="translate(192.499 290.355)">
      <circle id="Ellipse_69" data-name="Ellipse 69" cx="8.632" cy="8.632" r="8.632" transform="translate(0 8.957)" fill="#88c057"/>
      <path id="Path_266" data-name="Path 266" d="M37.386,5.5l-4.4,13.033a8.6,8.6,0,0,1-2.736,11.861H45.785Z" transform="translate(-17.033 -5.5)" fill="#659c35"/>
      <line id="Line_20" data-name="Line 20" x2="1.992" y2="1.992" transform="translate(6.64 20.909)" fill="none" stroke="#6c4127" stroke-linecap="round" stroke-miterlimit="10" stroke-width="2"/>
      <line id="Line_21" data-name="Line 21" x1="1.992" y2="1.992" transform="translate(8.632 20.909)" fill="none" stroke="#6c4127" stroke-linecap="round" stroke-miterlimit="10" stroke-width="2"/>
      <line id="Line_22" data-name="Line 22" y2="9.296" transform="translate(8.632 22.901)" fill="none" stroke="#6c4127" stroke-linecap="round" stroke-miterlimit="10" stroke-width="2"/>
      <line id="Line_23" data-name="Line 23" x2="1.992" y2="1.992" transform="translate(18.592 20.909)" fill="none" stroke="#6c4127" stroke-linecap="round" stroke-miterlimit="10" stroke-width="2"/>
      <line id="Line_24" data-name="Line 24" x1="1.992" y2="1.992" transform="translate(20.585 20.909)" fill="none" stroke="#6c4127" stroke-linecap="round" stroke-miterlimit="10" stroke-width="2"/>
      <line id="Line_25" data-name="Line 25" y2="9.296" transform="translate(20.585 22.901)" fill="none" stroke="#6c4127" stroke-linecap="round" stroke-miterlimit="10" stroke-width="2"/>
    </g>
  </g>
</svg>
