<svg xmlns="http://www.w3.org/2000/svg" width="40.119" height="41.12" viewBox="0 0 40.119 41.12"><defs><style>.a{fill:#fff;}</style></defs><g transform="translate(3.198 2.781)"><g transform="translate(-3.198 -2.78)"><path class="a" d="M41.939,59.913c-.5-1.568-2.384-7.521-2.759-9.132-.314-1.357.069-2.168,1.538-2.749A11.769,11.769,0,0,0,46.6,42.939c-2.443,1.535-7.639,5.305-7.72,4.317,0-3.39,1.985-7.346,3.058-10.645C36.269,44.1,35.117,48.589,38.514,60.4,39.4,62.217,42.364,61.228,41.939,59.913Z" transform="translate(-20.638 -20.272)"/><path class="a" d="M66.841,43.8a4.058,4.058,0,0,0-2.214,3.319c.006.361,2.993-.986,3.174-.68.217.371-2.355,2.345-1.964,2.535a4.189,4.189,0,0,0,3.793-.4C71.465,47.5,73.011,43.4,73.011,43.4S68.679,42.733,66.841,43.8Z" transform="translate(-39.03 -23.918)"/><path class="a" d="M64.131,33.967a3.143,3.143,0,0,0,2.841-.3c1.375-.8,2.532-3.876,2.532-3.876s-3.244-.5-4.621.3a3.046,3.046,0,0,0-1.659,2.488c.006.271,2.242-.739,2.376-.508C65.762,32.347,63.834,33.823,64.131,33.967Z" transform="translate(-38.253 -16.409)"/><path class="a" d="M78.247,31.224A2.3,2.3,0,0,0,76.995,33.1c0,.205,1.692-.557,1.795-.382.122.209-1.336,1.327-1.112,1.434a2.368,2.368,0,0,0,2.148-.228C80.863,33.321,81.739,31,81.739,31S79.288,30.618,78.247,31.224Z" transform="translate(-45.878 -17.099)"/><path class="a" d="M85.048,46.87c-.065.119,1.136.233,1.139.365,0,.159-1.182.318-1.09.451a1.544,1.544,0,0,0,1.286.565A4.738,4.738,0,0,0,88.4,47.216a4.709,4.709,0,0,0-2.041-1A1.5,1.5,0,0,0,85.048,46.87Z" transform="translate(-50.336 -25.59)"/><path class="a" d="M90.3,36a1.613,1.613,0,0,0-1.274.945c-.046.137,1.252.033,1.279.174.03.166-1.2.56-1.076.685a1.664,1.664,0,0,0,1.472.358c.829-.155,1.958-1.481,1.958-1.481A5.08,5.08,0,0,0,90.3,36Z" transform="translate(-52.54 -19.921)"/><path class="a" d="M54.983,43.921a2.362,2.362,0,0,0,2.148-.228c1.039-.607,1.912-2.929,1.912-2.929s-2.449-.38-3.491.226A2.3,2.3,0,0,0,54.3,42.87c0,.2,1.691-.557,1.795-.383C56.218,42.7,54.762,43.813,54.983,43.921Z" transform="translate(-33.312 -22.507)"/><path class="a" d="M64.79,21.322c.067.192,1.436-1.057,1.589-.921.183.159-.859,1.673-.614,1.7a2.353,2.353,0,0,0,1.973-.881c.8-.9.913-3.373.913-3.373s-2.45.393-3.25,1.292A2.3,2.3,0,0,0,64.79,21.322Z" transform="translate(-39.075 -9.885)"/><path class="a" d="M80.669,20.4c.18.159-.859,1.673-.614,1.7a2.355,2.355,0,0,0,1.973-.881c.8-.9.91-3.373.91-3.373s-2.45.394-3.25,1.293a2.32,2.32,0,0,0-.611,2.179C79.144,21.514,80.516,20.265,80.669,20.4Z" transform="translate(-46.987 -9.884)"/><path class="a" d="M63.093,10.831c.183.161-.859,1.673-.615,1.707a2.368,2.368,0,0,0,1.975-.881c.8-.9.913-3.376.913-3.376s-2.45.394-3.25,1.293a2.3,2.3,0,0,0-.611,2.177C61.572,11.942,62.941,10.695,63.093,10.831Z" transform="translate(-37.255 -4.586)"/><path class="a" d="M51.662,6.947c.248.122.391-2.36.66-2.373.327-.017.746,2.412,1.015,2.211A3.164,3.164,0,0,0,54.4,4.09C54.327,2.482,52.112,0,52.112,0s-1.981,2.676-1.9,4.29A3.087,3.087,0,0,0,51.662,6.947Z" transform="translate(-31.045)"/><path class="a" d="M47.939,20.742c.2.049-.1-1.781.1-1.834.232-.064.932,1.634,1.089,1.449a2.369,2.369,0,0,0,.346-2.134c-.315-1.16-2.327-2.612-2.327-2.612s-1.009,2.267-.693,3.428A2.3,2.3,0,0,0,47.939,20.742Z" transform="translate(-28.934 -8.644)"/><path class="a" d="M22.552,26.866a2.3,2.3,0,0,0,2.243-.281c.15-.138-1.533-.915-1.467-1.107.077-.23,1.876.141,1.808-.1a2.348,2.348,0,0,0-1.574-1.475c-1.14-.391-3.467.469-3.467.469S21.413,26.478,22.552,26.866Z" transform="translate(-14.372 -13.181)"/><path class="a" d="M9.728,21.717a2.3,2.3,0,0,0,2.243-.282c.148-.137-1.531-.915-1.467-1.109.076-.23,1.875.144,1.811-.1a2.372,2.372,0,0,0-1.574-1.475c-1.14-.39-3.468.469-3.468.469S8.586,21.329,9.728,21.717Z" transform="translate(-7.272 -10.33)"/><path class="a" d="M19.048,48.621c.1-.181-1.746-.358-1.746-.563-.006-.243,1.817-.486,1.676-.686A2.367,2.367,0,0,0,17,46.5c-1.2.008-3.119,1.588-3.119,1.588s1.936,1.55,3.14,1.541A2.3,2.3,0,0,0,19.048,48.621Z" transform="translate(-10.933 -25.747)"/><path class="a" d="M13.237,34.987c.1-.178-1.747-.357-1.75-.56,0-.243,1.817-.486,1.677-.686a2.354,2.354,0,0,0-1.974-.874c-1.2.008-3.119,1.588-3.119,1.588s1.936,1.55,3.141,1.539A2.3,2.3,0,0,0,13.237,34.987Z" transform="translate(-7.714 -18.199)"/><path class="a" d="M26.736,14.725c.2-.017-.669-1.65-.5-1.765.2-.14,1.411,1.243,1.5,1.014a2.359,2.359,0,0,0-.369-2.129c-.676-1-3.049-1.709-3.049-1.709s-.217,2.47.462,3.464A2.278,2.278,0,0,0,26.736,14.725Z" transform="translate(-16.692 -5.612)"/><path class="a" d="M39.06,14.725c.205-.017-.669-1.65-.5-1.765.2-.14,1.41,1.243,1.5,1.014a2.372,2.372,0,0,0-.369-2.129c-.676-1-3.049-1.709-3.049-1.709s-.217,2.47.461,3.464A2.28,2.28,0,0,0,39.06,14.725Z" transform="translate(-23.516 -5.612)"/><path class="a" d="M53.936,23.186a3.042,3.042,0,0,0,.8,2.882c.208.172.9-2.18,1.166-2.132.315.059.177,2.485.478,2.354a3.139,3.139,0,0,0,1.628-2.349c.295-1.562-1.28-4.447-1.28-4.447S54.229,21.621,53.936,23.186Z" transform="translate(-33.073 -10.795)"/><path class="a" d="M38.238,27.472A3.046,3.046,0,0,0,40.869,28.9c.266-.029-.945-2.166-.724-2.321.259-.186,1.909,1.6,2.025,1.29a3.14,3.14,0,0,0-.562-2.8c-.922-1.294-4.086-2.166-4.086-2.166S37.314,26.175,38.238,27.472Z" transform="translate(-24.011 -12.681)"/><path class="a" d="M25.923,40.863a3.927,3.927,0,0,0,3.638-1.3c.2-.282-2.89-.964-2.853-1.308.045-.413,3.183-.455,2.987-.831a4.052,4.052,0,0,0-3.177-1.878c-2.037-.232-5.605,2.059-5.605,2.059S23.882,40.633,25.923,40.863Z" transform="translate(-14.825 -19.676)"/><path class="a" d="M33.193,51.315a2.749,2.749,0,0,0-2.156-1.276c-1.387-.158-3.813,1.4-3.813,1.4s2.015,2.053,3.406,2.208a2.659,2.659,0,0,0,2.471-.88c.137-.191-1.964-.656-1.94-.889C31.191,51.6,33.324,51.572,33.193,51.315Z" transform="translate(-18.32 -27.701)"/></g></g></svg>