<svg xmlns="http://www.w3.org/2000/svg" width="18.333" height="15.25" viewBox="0 0 18.333 15.25"><defs><style>.a{fill:#fff;}</style></defs><path class="a" d="M18.042,36.871c-.407.181-.83-.283-1.264-.18a3.941,3.941,0,0,0,1.04-1.657h0a.207.207,0,0,0-.3-.241h0a7.294,7.294,0,0,1-1.933.8.492.492,0,0,1-.121.015.512.512,0,0,1-.338-.129,3.952,3.952,0,0,0-2.615-.987,4.226,4.226,0,0,0-1.252.193,3.829,3.829,0,0,0-2.581,2.759A4.216,4.216,0,0,0,8.582,38.9a.142.142,0,0,1-.036.111.147.147,0,0,1-.109.049H8.424A10.364,10.364,0,0,1,1.3,35.253h0a.207.207,0,0,0-.339.027h0a3.957,3.957,0,0,0,.643,4.8,3.542,3.542,0,0,1-.9-.349h0a.207.207,0,0,0-.307.178h0A3.957,3.957,0,0,0,2.7,43.559H2.62a3.556,3.556,0,0,1-.666-.064h0a.207.207,0,0,0-.236.266h0a3.961,3.961,0,0,0,3.129,2.694A7.293,7.293,0,0,1,.763,47.7H.306a.3.3,0,0,0-.3.228.313.313,0,0,0,.15.346,10.848,10.848,0,0,0,5.451,1.47,11,11,0,0,0,4.658-.988A10.287,10.287,0,0,0,13.678,46.2a11.2,11.2,0,0,0,2.087-3.5,11.042,11.042,0,0,0,.709-3.826v-.06a.673.673,0,0,1,.252-.524A7.812,7.812,0,0,0,18.3,36.569h0a.207.207,0,0,0-.256-.3Z" transform="translate(0 -34.491)"/></svg>